<?xml version="1.0" encoding="UTF-8" standalone="no"?>
<svg
   xmlns:dc="http://purl.org/dc/elements/1.1/"
   xmlns:cc="http://creativecommons.org/ns#"
   xmlns:rdf="http://www.w3.org/1999/02/22-rdf-syntax-ns#"
   xmlns:svg="http://www.w3.org/2000/svg"
   xmlns="http://www.w3.org/2000/svg"
   xmlns:sodipodi="http://sodipodi.sourceforge.net/DTD/sodipodi-0.dtd"
   xmlns:inkscape="http://www.inkscape.org/namespaces/inkscape"
   width="658.38pt"
   height="198.04pt"
   viewBox="0 0 658.38 198.04"
   version="1.2"
   id="svg180"
   sodipodi:docname="ISOLOGO CNEA-BW.svg"
   inkscape:version="0.92.2 5c3e80d, 2017-08-06">
  <metadata
     id="metadata184">
    <rdf:RDF>
      <cc:Work
         rdf:about="">
        <dc:format>image/svg+xml</dc:format>
        <dc:type
           rdf:resource="http://purl.org/dc/dcmitype/StillImage" />
        <dc:title></dc:title>
      </cc:Work>
    </rdf:RDF>
  </metadata>
  <sodipodi:namedview
     pagecolor="#ffffff"
     bordercolor="#666666"
     borderopacity="1"
     objecttolerance="10"
     gridtolerance="10"
     guidetolerance="10"
     inkscape:pageopacity="0"
     inkscape:pageshadow="2"
     inkscape:window-width="1318"
     inkscape:window-height="739"
     id="namedview182"
     showgrid="false"
     inkscape:zoom="1.1027066"
     inkscape:cx="506.90938"
     inkscape:cy="98.773533"
     inkscape:window-x="48"
     inkscape:window-y="0"
     inkscape:window-maximized="1"
     inkscape:current-layer="surface722" />
  <defs
     id="defs11">
    <clipPath
       id="clip1">
      <path
         d="M 652 45 L 658.378906 45 L 658.378906 66 L 652 66 Z M 652 45 "
         id="path2" />
    </clipPath>
    <clipPath
       id="clip2">
      <path
         d="M 646 82 L 658.378906 82 L 658.378906 98 L 646 98 Z M 646 82 "
         id="path5" />
    </clipPath>
    <clipPath
       id="clip3">
      <path
         d="M 69 182 L 79 182 L 79 198.039062 L 69 198.039062 Z M 69 182 "
         id="path8" />
    </clipPath>
  </defs>
  <g
     id="surface722">
    <path
       style=" stroke:none;fill-rule:nonzero;fill:rgb(13.729858%,12.159729%,12.548828%);fill-opacity:1;"
       d="M 429.015625 65.914062 C 426.894531 65.914062 425.058594 65.140625 423.65625 63.734375 C 421.65625 61.734375 421.683594 59.46875 421.683594 55.542969 C 421.683594 51.617188 421.65625 49.355469 423.65625 47.355469 C 425.058594 45.945312 426.894531 45.175781 429.015625 45.175781 C 432.769531 45.175781 435.570312 47.382812 436.289062 51.445312 L 433.140625 51.445312 C 432.648438 49.382812 431.273438 47.953125 429.015625 47.953125 C 427.8125 47.953125 426.722656 48.414062 426.007812 49.183594 C 425.003906 50.277344 424.773438 51.445312 424.773438 55.542969 C 424.773438 59.640625 425.003906 60.8125 426.007812 61.902344 C 426.722656 62.675781 427.8125 63.136719 429.015625 63.136719 C 431.273438 63.136719 432.679688 61.703125 433.164062 59.640625 L 436.289062 59.640625 C 435.601562 63.707031 432.710938 65.914062 429.015625 65.914062 "
       id="path13" />
    <path
       style=" stroke:none;fill-rule:nonzero;fill:rgb(13.729858%,12.159729%,12.548828%);fill-opacity:1;"
       d="M 447.574219 54.484375 C 447.03125 53.9375 446.285156 53.652344 445.425781 53.652344 C 444.570312 53.652344 443.851562 53.9375 443.308594 54.484375 C 442.421875 55.371094 442.304688 56.886719 442.304688 58.464844 C 442.304688 60.039062 442.421875 61.5625 443.308594 62.445312 C 443.851562 62.992188 444.570312 63.304688 445.425781 63.304688 C 446.285156 63.304688 447.03125 62.992188 447.574219 62.445312 C 448.460938 61.5625 448.578125 60.039062 448.578125 58.464844 C 448.578125 56.886719 448.460938 55.371094 447.574219 54.484375 M 449.78125 64.191406 C 448.839844 65.167969 447.402344 65.914062 445.425781 65.914062 C 443.449219 65.914062 442.050781 65.167969 441.101562 64.191406 C 439.726562 62.761719 439.382812 60.929688 439.382812 58.464844 C 439.382812 56.03125 439.726562 54.195312 441.101562 52.765625 C 442.050781 51.789062 443.449219 51.050781 445.425781 51.050781 C 447.402344 51.050781 448.839844 51.789062 449.78125 52.765625 C 451.152344 54.195312 451.5 56.03125 451.5 58.464844 C 451.5 60.929688 451.152344 62.761719 449.78125 64.191406 "
       id="path15" />
    <path
       style=" stroke:none;fill-rule:nonzero;fill:rgb(13.729858%,12.159729%,12.548828%);fill-opacity:1;"
       d="M 473.152344 65.738281 L 473.152344 56.886719 C 473.152344 54.628906 471.863281 53.652344 470.230469 53.652344 C 468.65625 53.652344 467.222656 54.65625 467.222656 56.746094 L 467.222656 65.738281 L 464.304688 65.738281 L 464.304688 56.886719 C 464.304688 54.628906 463.015625 53.652344 461.382812 53.652344 C 459.742188 53.652344 458.371094 54.65625 458.371094 56.886719 L 458.371094 65.738281 L 455.453125 65.738281 L 455.453125 51.21875 L 458.3125 51.21875 L 458.3125 52.679688 C 459.289062 51.617188 460.71875 51.050781 462.183594 51.050781 C 463.988281 51.050781 465.394531 51.757812 466.308594 53.167969 C 467.480469 51.734375 468.941406 51.050781 470.859375 51.050781 C 472.351562 51.050781 473.664062 51.535156 474.527344 52.363281 C 475.644531 53.453125 476.070312 54.832031 476.070312 56.460938 L 476.070312 65.738281 L 473.152344 65.738281 "
       id="path17" />
    <path
       style=" stroke:none;fill-rule:nonzero;fill:rgb(13.729858%,12.159729%,12.548828%);fill-opacity:1;"
       d="M 480.570312 51.21875 L 483.496094 51.21875 L 483.496094 65.738281 L 480.570312 65.738281 Z M 480.488281 45.257812 L 483.578125 45.257812 L 483.578125 48.355469 L 480.488281 48.355469 L 480.488281 45.257812 "
       id="path19" />
    <path
       style=" stroke:none;fill-rule:nonzero;fill:rgb(13.729858%,12.159729%,12.548828%);fill-opacity:1;"
       d="M 492.832031 65.914062 C 490.449219 65.914062 488.449219 65.511719 486.730469 63.820312 L 488.652344 61.902344 C 489.824219 63.105469 491.398438 63.421875 492.832031 63.421875 C 494.605469 63.421875 496.015625 62.796875 496.015625 61.414062 C 496.015625 60.441406 495.46875 59.8125 494.0625 59.699219 L 491.742188 59.496094 C 489.023438 59.269531 487.445312 58.03125 487.445312 55.488281 C 487.445312 52.652344 489.882812 51.050781 492.917969 51.050781 C 495.09375 51.050781 496.957031 51.503906 498.300781 52.679688 L 496.46875 54.542969 C 495.550781 53.769531 494.265625 53.484375 492.890625 53.484375 C 491.144531 53.484375 490.253906 54.257812 490.253906 55.34375 C 490.253906 56.203125 490.710938 56.859375 492.261719 57.007812 L 494.550781 57.207031 C 497.273438 57.4375 498.875 58.722656 498.875 61.304688 C 498.875 64.335938 496.292969 65.914062 492.832031 65.914062 "
       id="path21" />
    <path
       style=" stroke:none;fill-rule:nonzero;fill:rgb(13.729858%,12.159729%,12.548828%);fill-opacity:1;"
       d="M 502.425781 51.21875 L 505.347656 51.21875 L 505.347656 65.738281 L 502.425781 65.738281 Z M 502.34375 45.257812 L 505.433594 45.257812 L 505.433594 48.355469 L 502.34375 48.355469 L 502.34375 45.257812 "
       id="path23" />
    <path
       style=" stroke:none;fill-rule:nonzero;fill:rgb(13.729858%,12.159729%,12.548828%);fill-opacity:1;"
       d="M 516.0625 48.585938 L 513.855469 48.585938 L 516.007812 43.941406 L 519.242188 43.941406 Z M 517.492188 54.484375 C 516.949219 53.9375 516.203125 53.652344 515.34375 53.652344 C 514.484375 53.652344 513.769531 53.9375 513.226562 54.484375 C 512.339844 55.371094 512.222656 56.886719 512.222656 58.464844 C 512.222656 60.039062 512.339844 61.5625 513.226562 62.445312 C 513.769531 62.988281 514.484375 63.308594 515.34375 63.308594 C 516.203125 63.308594 516.949219 62.988281 517.492188 62.445312 C 518.382812 61.5625 518.496094 60.039062 518.496094 58.464844 C 518.496094 56.886719 518.382812 55.371094 517.492188 54.484375 M 519.699219 64.191406 C 518.757812 65.167969 517.320312 65.914062 515.34375 65.914062 C 513.363281 65.914062 511.964844 65.167969 511.019531 64.191406 C 509.644531 62.761719 509.304688 60.929688 509.304688 58.464844 C 509.304688 56.03125 509.644531 54.195312 511.019531 52.765625 C 511.964844 51.789062 513.363281 51.050781 515.34375 51.050781 C 517.320312 51.050781 518.757812 51.789062 519.699219 52.765625 C 521.070312 54.195312 521.414062 56.03125 521.414062 58.464844 C 521.414062 60.929688 521.070312 62.761719 519.699219 64.191406 "
       id="path25" />
    <path
       style=" stroke:none;fill-rule:nonzero;fill:rgb(13.729858%,12.159729%,12.548828%);fill-opacity:1;"
       d="M 534.222656 65.738281 L 534.222656 56.886719 C 534.222656 54.628906 532.929688 53.652344 531.296875 53.652344 C 529.667969 53.652344 528.292969 54.65625 528.292969 56.886719 L 528.292969 65.738281 L 525.371094 65.738281 L 525.371094 51.21875 L 528.234375 51.21875 L 528.234375 52.679688 C 529.238281 51.589844 530.640625 51.050781 532.101562 51.050781 C 533.589844 51.050781 534.820312 51.535156 535.683594 52.363281 C 536.800781 53.453125 537.140625 54.832031 537.140625 56.460938 L 537.140625 65.738281 L 534.222656 65.738281 "
       id="path27" />
    <path
       style=" stroke:none;fill-rule:nonzero;fill:rgb(13.729858%,12.159729%,12.548828%);fill-opacity:1;"
       d="M 561.375 65.738281 L 551.953125 51.390625 L 551.953125 65.738281 L 548.855469 65.738281 L 548.855469 45.347656 L 551.691406 45.347656 L 561.113281 59.667969 L 561.113281 45.347656 L 564.207031 45.347656 L 564.207031 65.738281 L 561.375 65.738281 "
       id="path29" />
    <path
       style=" stroke:none;fill-rule:nonzero;fill:rgb(13.729858%,12.159729%,12.548828%);fill-opacity:1;"
       d="M 576.957031 59.324219 L 573.554688 59.324219 C 571.832031 59.324219 570.9375 60.097656 570.9375 61.414062 C 570.9375 62.734375 571.773438 63.480469 573.605469 63.480469 C 574.722656 63.480469 575.550781 63.390625 576.324219 62.648438 C 576.757812 62.21875 576.957031 61.53125 576.957031 60.496094 Z M 577.015625 65.738281 L 577.015625 64.421875 C 575.953125 65.484375 574.953125 65.914062 573.144531 65.914062 C 571.339844 65.914062 570.140625 65.484375 569.253906 64.59375 C 568.511719 63.820312 568.109375 62.703125 568.109375 61.472656 C 568.109375 59.039062 569.800781 57.292969 573.117188 57.292969 L 576.957031 57.292969 L 576.957031 56.257812 C 576.957031 54.425781 576.046875 53.542969 573.78125 53.542969 C 572.175781 53.542969 571.398438 53.914062 570.601562 54.945312 L 568.675781 53.136719 C 570.050781 51.535156 571.484375 51.050781 573.890625 51.050781 C 577.878906 51.050781 579.882812 52.738281 579.882812 56.03125 L 579.882812 65.738281 L 577.015625 65.738281 "
       id="path31" />
    <path
       style=" stroke:none;fill-rule:nonzero;fill:rgb(13.729858%,12.159729%,12.548828%);fill-opacity:1;"
       d="M 590.105469 65.914062 C 586.835938 65.914062 583.632812 63.90625 583.632812 58.464844 C 583.632812 53.023438 586.835938 51.050781 590.105469 51.050781 C 592.109375 51.050781 593.511719 51.617188 594.890625 53.078125 L 592.882812 55.027344 C 591.96875 54.027344 591.25 53.652344 590.105469 53.652344 C 588.988281 53.652344 588.042969 54.109375 587.414062 54.945312 C 586.78125 55.746094 586.554688 56.773438 586.554688 58.464844 C 586.554688 60.15625 586.78125 61.214844 587.414062 62.015625 C 588.042969 62.847656 588.988281 63.304688 590.105469 63.304688 C 591.25 63.304688 591.96875 62.9375 592.882812 61.933594 L 594.890625 63.855469 C 593.511719 65.3125 592.109375 65.914062 590.105469 65.914062 "
       id="path33" />
    <path
       style=" stroke:none;fill-rule:nonzero;fill:rgb(13.729858%,12.159729%,12.548828%);fill-opacity:1;"
       d="M 598.265625 51.21875 L 601.1875 51.21875 L 601.1875 65.738281 L 598.265625 65.738281 Z M 598.183594 45.257812 L 601.273438 45.257812 L 601.273438 48.355469 L 598.183594 48.355469 L 598.183594 45.257812 "
       id="path35" />
    <path
       style=" stroke:none;fill-rule:nonzero;fill:rgb(13.729858%,12.159729%,12.548828%);fill-opacity:1;"
       d="M 613.335938 54.484375 C 612.789062 53.9375 612.042969 53.652344 611.183594 53.652344 C 610.328125 53.652344 609.609375 53.9375 609.066406 54.484375 C 608.175781 55.371094 608.066406 56.886719 608.066406 58.464844 C 608.066406 60.039062 608.175781 61.5625 609.066406 62.445312 C 609.609375 62.992188 610.328125 63.304688 611.183594 63.304688 C 612.042969 63.304688 612.789062 62.992188 613.335938 62.445312 C 614.222656 61.5625 614.335938 60.039062 614.335938 58.464844 C 614.335938 56.886719 614.222656 55.371094 613.335938 54.484375 M 615.535156 64.191406 C 614.597656 65.167969 613.164062 65.914062 611.183594 65.914062 C 609.210938 65.914062 607.808594 65.167969 606.863281 64.191406 C 605.484375 62.761719 605.144531 60.929688 605.144531 58.464844 C 605.144531 56.03125 605.484375 54.195312 606.863281 52.765625 C 607.808594 51.789062 609.210938 51.050781 611.183594 51.050781 C 613.164062 51.050781 614.597656 51.789062 615.535156 52.765625 C 616.914062 54.195312 617.257812 56.03125 617.257812 58.464844 C 617.257812 60.929688 616.914062 62.761719 615.535156 64.191406 "
       id="path37" />
    <path
       style=" stroke:none;fill-rule:nonzero;fill:rgb(13.729858%,12.159729%,12.548828%);fill-opacity:1;"
       d="M 630.0625 65.738281 L 630.0625 56.886719 C 630.0625 54.628906 628.773438 53.652344 627.144531 53.652344 C 625.507812 53.652344 624.132812 54.65625 624.132812 56.886719 L 624.132812 65.738281 L 621.214844 65.738281 L 621.214844 51.21875 L 624.074219 51.21875 L 624.074219 52.679688 C 625.078125 51.589844 626.480469 51.050781 627.9375 51.050781 C 629.433594 51.050781 630.664062 51.535156 631.523438 52.363281 C 632.640625 53.453125 632.980469 54.832031 632.980469 56.460938 L 632.980469 65.738281 L 630.0625 65.738281 "
       id="path39" />
    <path
       style=" stroke:none;fill-rule:nonzero;fill:rgb(13.729858%,12.159729%,12.548828%);fill-opacity:1;"
       d="M 645.246094 59.324219 L 641.839844 59.324219 C 640.113281 59.324219 639.230469 60.097656 639.230469 61.414062 C 639.230469 62.734375 640.058594 63.480469 641.894531 63.480469 C 643.011719 63.480469 643.835938 63.390625 644.609375 62.648438 C 645.039062 62.21875 645.246094 61.53125 645.246094 60.496094 Z M 645.304688 65.738281 L 645.304688 64.421875 C 644.238281 65.484375 643.238281 65.914062 641.429688 65.914062 C 639.628906 65.914062 638.425781 65.484375 637.535156 64.59375 C 636.796875 63.820312 636.394531 62.703125 636.394531 61.472656 C 636.394531 59.039062 638.082031 57.292969 641.402344 57.292969 L 645.246094 57.292969 L 645.246094 56.257812 C 645.246094 54.425781 644.324219 53.542969 642.066406 53.542969 C 640.457031 53.542969 639.6875 53.914062 638.890625 54.945312 L 636.96875 53.136719 C 638.339844 51.535156 639.773438 51.050781 642.179688 51.050781 C 646.160156 51.050781 648.164062 52.738281 648.164062 56.03125 L 648.164062 65.738281 L 645.304688 65.738281 "
       id="path41" />
    <g
       clip-path="url(#clip1)"
       clip-rule="nonzero"
       id="g45">
      <path
         style=" stroke:none;fill-rule:nonzero;fill:rgb(13.729858%,12.159729%,12.548828%);fill-opacity:1;"
         d="M 656.558594 65.738281 C 653.777344 65.738281 652.574219 63.878906 652.574219 61.734375 L 652.574219 45.347656 L 655.496094 45.347656 L 655.496094 61.5625 C 655.496094 62.671875 655.902344 63.25 657.070312 63.25 L 658.363281 63.25 L 658.363281 65.738281 L 656.558594 65.738281 "
         id="path43" />
    </g>
    <path
       style=" stroke:none;fill-rule:nonzero;fill:rgb(13.729858%,12.159729%,12.548828%);fill-opacity:1;"
       d="M 427.582031 85.355469 C 424.96875 85.355469 424.570312 87.589844 424.570312 90.167969 C 424.570312 92.746094 424.96875 95.007812 427.582031 95.007812 C 430.195312 95.007812 430.566406 92.746094 430.566406 90.167969 C 430.566406 87.589844 430.195312 85.355469 427.582031 85.355469 M 430.625 97.445312 L 430.625 95.898438 C 429.542969 97.214844 428.378906 97.613281 426.8125 97.613281 C 425.363281 97.613281 424.089844 97.128906 423.292969 96.332031 C 421.84375 94.867188 421.671875 92.371094 421.671875 90.167969 C 421.671875 87.964844 421.84375 85.496094 423.292969 84.039062 C 424.089844 83.234375 425.335938 82.75 426.785156 82.75 C 428.320312 82.75 429.515625 83.121094 430.566406 84.386719 L 430.566406 77.050781 L 433.464844 77.050781 L 433.464844 97.445312 L 430.625 97.445312 "
       id="path47" />
    <path
       style=" stroke:none;fill-rule:nonzero;fill:rgb(13.729858%,12.159729%,12.548828%);fill-opacity:1;"
       d="M 445.683594 87.019531 C 445.234375 85.925781 444.210938 85.1875 442.84375 85.1875 C 441.480469 85.1875 440.429688 85.925781 439.972656 87.019531 C 439.6875 87.679688 439.628906 88.105469 439.601562 88.996094 L 446.082031 88.996094 C 446.054688 88.105469 445.96875 87.679688 445.683594 87.019531 M 439.601562 91.03125 C 439.601562 93.519531 440.910156 95.097656 443.269531 95.097656 C 444.890625 95.097656 445.738281 94.636719 446.769531 93.605469 L 448.613281 95.351562 C 447.136719 96.839844 445.738281 97.613281 443.214844 97.613281 C 439.601562 97.613281 436.734375 95.695312 436.734375 90.167969 C 436.734375 85.472656 439.148438 82.75 442.84375 82.75 C 446.707031 82.75 448.953125 85.613281 448.953125 89.738281 L 448.953125 91.03125 L 439.601562 91.03125 "
       id="path49" />
    <path
       style=" stroke:none;fill-rule:nonzero;fill:rgb(13.729858%,12.159729%,12.548828%);fill-opacity:1;"
       d="M 457.929688 97.445312 L 457.929688 77.050781 L 470.863281 77.050781 L 470.863281 79.832031 L 461 79.832031 L 461 85.785156 L 469.414062 85.785156 L 469.414062 88.539062 L 461 88.539062 L 461 94.664062 L 470.863281 94.664062 L 470.863281 97.445312 L 457.929688 97.445312 "
       id="path51" />
    <path
       style=" stroke:none;fill-rule:nonzero;fill:rgb(13.729858%,12.159729%,12.548828%);fill-opacity:1;"
       d="M 483.195312 97.445312 L 483.195312 88.59375 C 483.195312 86.332031 481.917969 85.355469 480.300781 85.355469 C 478.679688 85.355469 477.308594 86.359375 477.308594 88.59375 L 477.308594 97.445312 L 474.410156 97.445312 L 474.410156 82.921875 L 477.257812 82.921875 L 477.257812 84.386719 C 478.246094 83.292969 479.640625 82.75 481.09375 82.75 C 482.570312 82.75 483.792969 83.234375 484.644531 84.066406 C 485.757812 85.15625 486.097656 86.53125 486.097656 88.160156 L 486.097656 97.445312 L 483.195312 97.445312 "
       id="path53" />
    <path
       style=" stroke:none;fill-rule:nonzero;fill:rgb(13.729858%,12.159729%,12.548828%);fill-opacity:1;"
       d="M 498.453125 87.019531 C 498.003906 85.925781 496.980469 85.1875 495.613281 85.1875 C 494.253906 85.1875 493.195312 85.925781 492.742188 87.019531 C 492.460938 87.679688 492.398438 88.105469 492.375 88.996094 L 498.855469 88.996094 C 498.824219 88.105469 498.742188 87.679688 498.453125 87.019531 M 492.375 91.03125 C 492.375 93.519531 493.679688 95.097656 496.042969 95.097656 C 497.660156 95.097656 498.511719 94.636719 499.535156 93.605469 L 501.382812 95.351562 C 499.902344 96.839844 498.511719 97.613281 495.984375 97.613281 C 492.375 97.613281 489.503906 95.695312 489.503906 90.167969 C 489.503906 85.472656 491.921875 82.75 495.613281 82.75 C 499.476562 82.75 501.726562 85.613281 501.726562 89.738281 L 501.726562 91.03125 L 492.375 91.03125 "
       id="path55" />
    <path
       style=" stroke:none;fill-rule:nonzero;fill:rgb(13.729858%,12.159729%,12.548828%);fill-opacity:1;"
       d="M 513.175781 86.332031 C 512.523438 85.671875 512.007812 85.359375 511.015625 85.359375 C 509.449219 85.359375 508.144531 86.621094 508.144531 88.621094 L 508.144531 97.445312 L 505.246094 97.445312 L 505.246094 82.921875 L 508.085938 82.921875 L 508.085938 84.5 C 508.824219 83.46875 510.304688 82.75 511.921875 82.75 C 513.3125 82.75 514.367188 83.121094 515.363281 84.128906 L 513.175781 86.332031 "
       id="path57" />
    <path
       style=" stroke:none;fill-rule:nonzero;fill:rgb(13.729858%,12.159729%,12.548828%);fill-opacity:1;"
       d="M 521.664062 85.355469 C 519.054688 85.355469 518.714844 87.621094 518.714844 89.914062 C 518.714844 92.207031 519.054688 94.464844 521.664062 94.464844 C 524.28125 94.464844 524.59375 92.207031 524.59375 89.914062 C 524.59375 87.621094 524.28125 85.355469 521.664062 85.355469 M 521.324219 103.488281 C 519.136719 103.488281 517.742188 102.972656 516.238281 101.570312 L 518.082031 99.707031 C 518.996094 100.566406 519.785156 100.992188 521.210938 100.992188 C 523.65625 100.992188 524.59375 99.25 524.59375 97.300781 L 524.59375 95.441406 C 523.539062 96.699219 522.347656 97.101562 520.871094 97.101562 C 519.421875 97.101562 518.226562 96.613281 517.425781 95.808594 C 516.039062 94.40625 515.808594 92.371094 515.808594 89.914062 C 515.808594 87.445312 516.039062 85.414062 517.425781 84.011719 C 518.226562 83.210938 519.449219 82.75 520.898438 82.75 C 522.433594 82.75 523.597656 83.152344 524.679688 84.46875 L 524.679688 82.921875 L 527.492188 82.921875 L 527.492188 97.359375 C 527.492188 100.910156 525.164062 103.488281 521.324219 103.488281 "
       id="path59" />
    <path
       style=" stroke:none;fill-rule:nonzero;fill:rgb(13.729858%,12.159729%,12.548828%);fill-opacity:1;"
       d="M 531.777344 82.921875 L 534.679688 82.921875 L 534.679688 97.445312 L 531.777344 97.445312 Z M 533.539062 80.285156 L 531.351562 80.285156 L 533.484375 75.648438 L 536.691406 75.648438 L 533.539062 80.285156 "
       id="path61" />
    <path
       style=" stroke:none;fill-rule:nonzero;fill:rgb(13.729858%,12.159729%,12.548828%);fill-opacity:1;"
       d="M 546.671875 91.03125 L 543.289062 91.03125 C 541.582031 91.03125 540.699219 91.800781 540.699219 93.121094 C 540.699219 94.433594 541.527344 95.179688 543.34375 95.179688 C 544.453125 95.179688 545.28125 95.097656 546.046875 94.351562 C 546.472656 93.917969 546.671875 93.230469 546.671875 92.207031 Z M 546.730469 97.445312 L 546.730469 96.125 C 545.679688 97.1875 544.683594 97.613281 542.894531 97.613281 C 541.101562 97.613281 539.910156 97.1875 539.027344 96.300781 C 538.285156 95.523438 537.890625 94.40625 537.890625 93.175781 C 537.890625 90.738281 539.566406 88.996094 542.859375 88.996094 L 546.671875 88.996094 L 546.671875 87.964844 C 546.671875 86.128906 545.761719 85.246094 543.519531 85.246094 C 541.925781 85.246094 541.15625 85.613281 540.363281 86.648438 L 538.457031 84.839844 C 539.824219 83.234375 541.242188 82.75 543.632812 82.75 C 547.582031 82.75 549.570312 84.441406 549.570312 87.734375 L 549.570312 97.445312 L 546.730469 97.445312 "
       id="path63" />
    <path
       style=" stroke:none;fill-rule:nonzero;fill:rgb(13.729858%,12.159729%,12.548828%);fill-opacity:1;"
       d="M 566.5625 81.660156 L 563.410156 90.714844 L 569.632812 90.714844 Z M 571.878906 97.445312 L 570.488281 93.347656 L 562.503906 93.347656 L 561.105469 97.445312 L 557.84375 97.445312 L 565.261719 77.050781 L 567.726562 77.050781 L 575.144531 97.445312 L 571.878906 97.445312 "
       id="path65" />
    <path
       style=" stroke:none;fill-rule:nonzero;fill:rgb(13.729858%,12.159729%,12.548828%);fill-opacity:1;"
       d="M 581.824219 97.445312 C 579.125 97.445312 577.878906 95.492188 577.878906 93.40625 L 577.878906 85.414062 L 576.226562 85.414062 L 576.226562 83.183594 L 577.878906 83.183594 L 577.878906 78.773438 L 580.769531 78.773438 L 580.769531 83.183594 L 583.5625 83.183594 L 583.5625 85.414062 L 580.769531 85.414062 L 580.769531 93.265625 C 580.769531 94.324219 581.285156 94.953125 582.367188 94.953125 L 583.5625 94.953125 L 583.5625 97.445312 L 581.824219 97.445312 "
       id="path67" />
    <path
       style=" stroke:none;fill-rule:nonzero;fill:rgb(13.729858%,12.159729%,12.548828%);fill-opacity:1;"
       d="M 593.136719 80.285156 L 590.949219 80.285156 L 593.074219 75.648438 L 596.292969 75.648438 Z M 594.558594 86.191406 C 594.015625 85.644531 593.277344 85.359375 592.421875 85.359375 C 591.570312 85.359375 590.859375 85.644531 590.324219 86.191406 C 589.4375 87.074219 589.324219 88.59375 589.324219 90.167969 C 589.324219 91.742188 589.4375 93.261719 590.324219 94.148438 C 590.859375 94.695312 591.570312 95.007812 592.421875 95.007812 C 593.277344 95.007812 594.015625 94.695312 594.558594 94.148438 C 595.433594 93.261719 595.550781 91.742188 595.550781 90.167969 C 595.550781 88.59375 595.433594 87.074219 594.558594 86.191406 M 596.742188 95.894531 C 595.808594 96.871094 594.386719 97.617188 592.421875 97.617188 C 590.464844 97.617188 589.070312 96.871094 588.128906 95.894531 C 586.769531 94.464844 586.429688 92.632812 586.429688 90.167969 C 586.429688 87.734375 586.769531 85.898438 588.128906 84.46875 C 589.070312 83.496094 590.464844 82.75 592.421875 82.75 C 594.386719 82.75 595.808594 83.496094 596.742188 84.46875 C 598.109375 85.898438 598.449219 87.734375 598.449219 90.167969 C 598.449219 92.632812 598.109375 94.464844 596.742188 95.894531 "
       id="path69" />
    <path
       style=" stroke:none;fill-rule:nonzero;fill:rgb(13.729858%,12.159729%,12.548828%);fill-opacity:1;"
       d="M 619.789062 97.445312 L 619.789062 88.59375 C 619.789062 86.332031 618.511719 85.355469 616.894531 85.355469 C 615.328125 85.355469 613.910156 86.359375 613.910156 88.453125 L 613.910156 97.445312 L 611.007812 97.445312 L 611.007812 88.59375 C 611.007812 86.332031 609.730469 85.355469 608.109375 85.355469 C 606.492188 85.355469 605.128906 86.359375 605.128906 88.59375 L 605.128906 97.445312 L 602.230469 97.445312 L 602.230469 82.921875 L 605.070312 82.921875 L 605.070312 84.386719 C 606.035156 83.324219 607.453125 82.75 608.902344 82.75 C 610.695312 82.75 612.089844 83.46875 613 84.867188 C 614.160156 83.4375 615.617188 82.75 617.519531 82.75 C 618.996094 82.75 620.308594 83.234375 621.15625 84.066406 C 622.269531 85.15625 622.691406 86.53125 622.691406 88.160156 L 622.691406 97.445312 L 619.789062 97.445312 "
       id="path71" />
    <path
       style=" stroke:none;fill-rule:nonzero;fill:rgb(13.729858%,12.159729%,12.548828%);fill-opacity:1;"
       d="M 627.007812 82.921875 L 629.90625 82.921875 L 629.90625 97.445312 L 627.007812 97.445312 Z M 626.921875 76.964844 L 629.992188 76.964844 L 629.992188 80.0625 L 626.921875 80.0625 L 626.921875 76.964844 "
       id="path73" />
    <path
       style=" stroke:none;fill-rule:nonzero;fill:rgb(13.729858%,12.159729%,12.548828%);fill-opacity:1;"
       d="M 640.050781 97.613281 C 636.808594 97.613281 633.628906 95.609375 633.628906 90.167969 C 633.628906 84.726562 636.808594 82.75 640.050781 82.75 C 642.042969 82.75 643.433594 83.324219 644.796875 84.785156 L 642.804688 86.734375 C 641.898438 85.726562 641.1875 85.355469 640.050781 85.355469 C 638.941406 85.355469 638.007812 85.816406 637.382812 86.648438 C 636.757812 87.445312 636.523438 88.484375 636.523438 90.167969 C 636.523438 91.859375 636.757812 92.917969 637.382812 93.71875 C 638.007812 94.554688 638.941406 95.007812 640.050781 95.007812 C 641.1875 95.007812 641.898438 94.636719 642.804688 93.632812 L 644.796875 95.554688 C 643.433594 97.015625 642.042969 97.613281 640.050781 97.613281 "
       id="path75" />
    <g
       clip-path="url(#clip2)"
       clip-rule="nonzero"
       id="g79">
      <path
         style=" stroke:none;fill-rule:nonzero;fill:rgb(13.729858%,12.159729%,12.548828%);fill-opacity:1;"
         d="M 655.484375 91.03125 L 652.097656 91.03125 C 650.394531 91.03125 649.511719 91.800781 649.511719 93.121094 C 649.511719 94.433594 650.335938 95.179688 652.15625 95.179688 C 653.265625 95.179688 654.085938 95.097656 654.851562 94.351562 C 655.28125 93.917969 655.484375 93.230469 655.484375 92.207031 Z M 655.539062 97.445312 L 655.539062 96.125 C 654.484375 97.1875 653.492188 97.613281 651.703125 97.613281 C 649.910156 97.613281 648.71875 97.1875 647.832031 96.300781 C 647.097656 95.523438 646.699219 94.40625 646.699219 93.175781 C 646.699219 90.738281 648.367188 88.996094 651.671875 88.996094 L 655.484375 88.996094 L 655.484375 87.964844 C 655.484375 86.128906 654.570312 85.246094 652.320312 85.246094 C 650.734375 85.246094 649.964844 85.613281 649.171875 86.648438 L 647.269531 84.839844 C 648.628906 83.234375 650.050781 82.75 652.4375 82.75 C 656.394531 82.75 658.378906 84.441406 658.378906 87.734375 L 658.378906 97.445312 L 655.539062 97.445312 "
         id="path77" />
    </g>
    <path
       style="stroke:none;fill-rule:evenodd;fill:#000000;fill-opacity:1"
       d="M 410.753906 73.714844 C 410.753906 114.421875 377.753906 147.421875 337.042969 147.421875 C 296.339844 147.421875 263.332031 114.421875 263.332031 73.714844 C 263.332031 33.003906 296.339844 0.00390625 337.042969 0.00390625 C 377.753906 0.00390625 410.753906 33.003906 410.753906 73.714844 "
       id="path81" />
    <path
       style=" stroke:none;fill-rule:nonzero;fill:rgb(100%,100%,100%);fill-opacity:1;"
       d="M 404.050781 73.714844 C 404.050781 110.71875 374.046875 140.71875 337.042969 140.71875 C 300.035156 140.71875 270.039062 110.71875 270.039062 73.714844 C 270.039062 36.703125 300.035156 6.707031 337.042969 6.707031 C 374.046875 6.707031 404.050781 36.703125 404.050781 73.714844 "
       id="path83" />
    <path
       style="stroke:none;fill-rule:nonzero;fill:#000000;fill-opacity:1"
       d="M 397.351562 73.714844 C 397.351562 107.019531 370.351562 134.019531 337.042969 134.019531 C 303.738281 134.019531 276.738281 107.019531 276.738281 73.714844 C 276.738281 40.40625 303.738281 13.40625 337.042969 13.40625 C 370.351562 13.40625 397.351562 40.40625 397.351562 73.714844 "
       id="path85" />
    <path
       style=" stroke:none;fill-rule:nonzero;fill:rgb(100%,100%,100%);fill-opacity:1;"
       d="M 390.648438 73.714844 C 390.648438 103.316406 366.652344 127.320312 337.046875 127.320312 C 307.4375 127.320312 283.4375 103.316406 283.4375 73.714844 C 283.4375 44.109375 307.4375 20.109375 337.046875 20.109375 C 366.652344 20.109375 390.648438 44.109375 390.648438 73.714844 "
       id="path87" />
    <path
       style=" stroke:none;fill-rule:nonzero;fill:rgb(13.729858%,12.159729%,12.548828%);fill-opacity:1;"
       d="M 296.996094 73.6875 C 296.996094 61.734375 302.277344 50.964844 310.625 43.609375 L 310.625 34.96875 C 298.273438 43.429688 290.140625 57.648438 290.140625 73.6875 C 290.140625 89.769531 298.285156 104 310.652344 112.476562 L 310.652344 103.824219 C 302.289062 96.460938 296.996094 85.667969 296.996094 73.6875 "
       id="path89" />
    <path
       style=" stroke:none;fill-rule:nonzero;fill:rgb(13.729858%,12.159729%,12.548828%);fill-opacity:1;"
       d="M 345.808594 112.851562 L 345.808594 77.144531 L 359.488281 77.144531 L 359.488281 70.28125 L 345.808594 70.28125 L 345.808594 34.570312 C 350.773438 35.6875 355.402344 37.734375 359.488281 40.511719 L 359.488281 32.511719 C 353.34375 29.140625 346.367188 27.105469 338.957031 26.808594 L 338.957031 120.621094 C 346.367188 120.316406 353.34375 118.28125 359.488281 114.914062 L 359.488281 106.902344 C 355.402344 109.6875 350.773438 111.730469 345.808594 112.851562 "
       id="path91" />
    <path
       style=" stroke:none;fill-rule:nonzero;fill:rgb(13.729858%,12.159729%,12.548828%);fill-opacity:1;"
       d="M 335.082031 110.765625 L 335.082031 26.8125 C 332.75 26.90625 330.460938 27.175781 328.230469 27.605469 L 328.230469 74.085938 L 322.476562 36.503906 L 322.472656 36.507812 L 321.394531 29.46875 C 319.382812 30.179688 317.441406 31.027344 315.5625 32.003906 L 315.316406 32.109375 L 315.320312 32.128906 C 315.0625 32.265625 314.804688 32.40625 314.546875 32.546875 L 314.546875 114.882812 C 316.730469 116.082031 319.027344 117.109375 321.402344 117.960938 L 321.375 110.617188 L 321.375 73.105469 L 327.214844 112.597656 C 327.1875 112.585938 327.160156 112.582031 327.136719 112.574219 L 328.179688 119.816406 C 330.425781 120.246094 332.730469 120.519531 335.082031 120.617188 L 335.082031 110.765625 "
       id="path93" />
    <path
       style=" stroke:none;fill-rule:nonzero;fill:rgb(13.729858%,12.159729%,12.548828%);fill-opacity:1;"
       d="M 370.242188 51.277344 C 373.980469 56.800781 376.386719 63.292969 376.976562 70.28125 L 370.242188 70.28125 Z M 370.242188 95.304688 L 370.242188 77.144531 L 376.976562 77.144531 C 376.453125 83.140625 374.613281 88.773438 371.738281 93.734375 L 377.238281 97.859375 C 381.5 90.789062 383.945312 82.519531 383.945312 73.6875 C 383.945312 57.609375 375.785156 43.367188 363.390625 34.902344 L 363.390625 43.519531 L 363.378906 43.519531 C 363.382812 43.519531 363.390625 43.523438 363.390625 43.527344 L 363.390625 112.515625 C 365.855469 110.835938 368.148438 108.929688 370.242188 106.824219 L 370.242188 95.304688 "
       id="path95" />
    <path
       style=" stroke:none;fill-rule:nonzero;fill:rgb(13.729858%,12.159729%,12.548828%);fill-opacity:1;"
       d="M 5.453125 170.121094 C 3.878906 170.121094 2.519531 169.550781 1.476562 168.507812 C -0.015625 167.015625 0.0078125 165.335938 0.0078125 162.421875 C 0.0078125 159.503906 -0.015625 157.820312 1.476562 156.335938 C 2.519531 155.292969 3.878906 154.71875 5.453125 154.71875 C 8.242188 154.71875 10.328125 156.355469 10.863281 159.378906 L 8.519531 159.378906 C 8.15625 157.847656 7.136719 156.78125 5.453125 156.78125 C 4.5625 156.78125 3.75 157.125 3.21875 157.695312 C 2.476562 158.503906 2.304688 159.378906 2.304688 162.421875 C 2.304688 165.464844 2.476562 166.335938 3.21875 167.144531 C 3.75 167.722656 4.5625 168.0625 5.453125 168.0625 C 7.136719 168.0625 8.175781 166.996094 8.539062 165.464844 L 10.863281 165.464844 C 10.347656 168.484375 8.199219 170.121094 5.453125 170.121094 "
       id="path97" />
    <path
       style=" stroke:none;fill-rule:nonzero;fill:rgb(13.729858%,12.159729%,12.548828%);fill-opacity:1;"
       d="M 19.242188 161.632812 C 18.839844 161.230469 18.285156 161.015625 17.644531 161.015625 C 17.007812 161.015625 16.476562 161.230469 16.074219 161.632812 C 15.414062 162.296875 15.328125 163.421875 15.328125 164.589844 C 15.328125 165.761719 15.414062 166.890625 16.074219 167.546875 C 16.476562 167.953125 17.007812 168.1875 17.644531 168.1875 C 18.285156 168.1875 18.839844 167.953125 19.242188 167.546875 C 19.90625 166.890625 19.988281 165.761719 19.988281 164.589844 C 19.988281 163.421875 19.90625 162.296875 19.242188 161.632812 M 20.882812 168.847656 C 20.179688 169.570312 19.117188 170.121094 17.644531 170.121094 C 16.179688 170.121094 15.136719 169.570312 14.433594 168.847656 C 13.414062 167.78125 13.160156 166.421875 13.160156 164.589844 C 13.160156 162.78125 13.414062 161.421875 14.433594 160.355469 C 15.136719 159.632812 16.179688 159.078125 17.644531 159.078125 C 19.117188 159.078125 20.179688 159.632812 20.882812 160.355469 C 21.902344 161.421875 22.15625 162.78125 22.15625 164.589844 C 22.15625 166.421875 21.902344 167.78125 20.882812 168.847656 "
       id="path99" />
    <path
       style=" stroke:none;fill-rule:nonzero;fill:rgb(13.729858%,12.159729%,12.548828%);fill-opacity:1;"
       d="M 38.246094 169.996094 L 38.246094 163.421875 C 38.246094 161.742188 37.289062 161.015625 36.074219 161.015625 C 34.90625 161.015625 33.839844 161.761719 33.839844 163.316406 L 33.839844 169.996094 L 31.667969 169.996094 L 31.667969 163.421875 C 31.667969 161.742188 30.714844 161.015625 29.5 161.015625 C 28.285156 161.015625 27.265625 161.761719 27.265625 163.421875 L 27.265625 169.996094 L 25.09375 169.996094 L 25.09375 159.210938 L 27.222656 159.210938 L 27.222656 160.292969 C 27.945312 159.503906 29.011719 159.078125 30.097656 159.078125 C 31.4375 159.078125 32.480469 159.613281 33.160156 160.652344 C 34.03125 159.589844 35.117188 159.078125 36.542969 159.078125 C 37.648438 159.078125 38.628906 159.441406 39.265625 160.058594 C 40.097656 160.867188 40.417969 161.890625 40.417969 163.101562 L 40.417969 169.996094 L 38.246094 169.996094 "
       id="path101" />
    <path
       style=" stroke:none;fill-rule:nonzero;fill:rgb(13.729858%,12.159729%,12.548828%);fill-opacity:1;"
       d="M 43.761719 159.210938 L 45.929688 159.210938 L 45.929688 169.996094 L 43.761719 169.996094 Z M 43.695312 154.78125 L 45.992188 154.78125 L 45.992188 157.078125 L 43.695312 157.078125 L 43.695312 154.78125 "
       id="path103" />
    <path
       style=" stroke:none;fill-rule:nonzero;fill:rgb(13.729858%,12.159729%,12.548828%);fill-opacity:1;"
       d="M 52.867188 170.121094 C 51.097656 170.121094 49.609375 169.824219 48.332031 168.570312 L 49.757812 167.144531 C 50.632812 168.035156 51.800781 168.269531 52.867188 168.269531 C 54.183594 168.269531 55.226562 167.804688 55.226562 166.785156 C 55.226562 166.058594 54.820312 165.589844 53.777344 165.503906 L 52.054688 165.355469 C 50.035156 165.1875 48.863281 164.269531 48.863281 162.378906 C 48.863281 160.273438 50.671875 159.078125 52.929688 159.078125 C 54.546875 159.078125 55.929688 159.421875 56.929688 160.292969 L 55.566406 161.675781 C 54.886719 161.101562 53.929688 160.890625 52.910156 160.890625 C 51.609375 160.890625 50.949219 161.464844 50.949219 162.273438 C 50.949219 162.910156 51.289062 163.398438 52.441406 163.503906 L 54.144531 163.652344 C 56.164062 163.824219 57.355469 164.78125 57.355469 166.695312 C 57.355469 168.953125 55.441406 170.121094 52.867188 170.121094 "
       id="path105" />
    <path
       style=" stroke:none;fill-rule:nonzero;fill:rgb(13.729858%,12.159729%,12.548828%);fill-opacity:1;"
       d="M 59.992188 159.210938 L 62.164062 159.210938 L 62.164062 169.996094 L 59.992188 169.996094 Z M 59.929688 154.78125 L 62.226562 154.78125 L 62.226562 157.078125 L 59.929688 157.078125 L 59.929688 154.78125 "
       id="path107" />
    <path
       style=" stroke:none;fill-rule:nonzero;fill:rgb(13.729858%,12.159729%,12.548828%);fill-opacity:1;"
       d="M 70.121094 157.25 L 68.484375 157.25 L 70.082031 153.804688 L 72.484375 153.804688 Z M 71.1875 161.632812 C 70.78125 161.230469 70.226562 161.015625 69.589844 161.015625 C 68.953125 161.015625 68.417969 161.230469 68.015625 161.632812 C 67.355469 162.296875 67.269531 163.421875 67.269531 164.589844 C 67.269531 165.761719 67.355469 166.890625 68.015625 167.546875 C 68.417969 167.953125 68.953125 168.1875 69.589844 168.1875 C 70.226562 168.1875 70.78125 167.953125 71.1875 167.546875 C 71.847656 166.890625 71.929688 165.761719 71.929688 164.589844 C 71.929688 163.421875 71.847656 162.296875 71.1875 161.632812 M 72.824219 168.847656 C 72.125 169.570312 71.058594 170.121094 69.589844 170.121094 C 68.125 170.121094 67.082031 169.570312 66.378906 168.847656 C 65.359375 167.78125 65.101562 166.421875 65.101562 164.589844 C 65.101562 162.78125 65.359375 161.421875 66.378906 160.355469 C 67.082031 159.632812 68.125 159.078125 69.589844 159.078125 C 71.058594 159.078125 72.125 159.632812 72.824219 160.355469 C 73.847656 161.421875 74.101562 162.78125 74.101562 164.589844 C 74.101562 166.421875 73.847656 167.78125 72.824219 168.847656 "
       id="path109" />
    <path
       style=" stroke:none;fill-rule:nonzero;fill:rgb(13.729858%,12.159729%,12.548828%);fill-opacity:1;"
       d="M 83.613281 169.996094 L 83.613281 163.421875 C 83.613281 161.742188 82.65625 161.015625 81.445312 161.015625 C 80.230469 161.015625 79.210938 161.761719 79.210938 163.421875 L 79.210938 169.996094 L 77.039062 169.996094 L 77.039062 159.210938 L 79.164062 159.210938 L 79.164062 160.292969 C 79.910156 159.484375 80.957031 159.078125 82.039062 159.078125 C 83.144531 159.078125 84.058594 159.441406 84.699219 160.058594 C 85.53125 160.867188 85.785156 161.890625 85.785156 163.101562 L 85.785156 169.996094 L 83.613281 169.996094 "
       id="path111" />
    <path
       style=" stroke:none;fill-rule:nonzero;fill:rgb(13.729858%,12.159729%,12.548828%);fill-opacity:1;"
       d="M 103.785156 169.996094 L 96.785156 159.335938 L 96.785156 169.996094 L 94.488281 169.996094 L 94.488281 154.847656 L 96.59375 154.847656 L 103.59375 165.484375 L 103.59375 154.847656 L 105.894531 154.847656 L 105.894531 169.996094 L 103.785156 169.996094 "
       id="path113" />
    <path
       style=" stroke:none;fill-rule:nonzero;fill:rgb(13.729858%,12.159729%,12.548828%);fill-opacity:1;"
       d="M 115.363281 165.230469 L 112.832031 165.230469 C 111.554688 165.230469 110.894531 165.804688 110.894531 166.785156 C 110.894531 167.761719 111.511719 168.316406 112.875 168.316406 C 113.703125 168.316406 114.320312 168.25 114.894531 167.699219 C 115.214844 167.378906 115.363281 166.867188 115.363281 166.101562 Z M 115.40625 169.996094 L 115.40625 169.015625 C 114.621094 169.804688 113.875 170.121094 112.535156 170.121094 C 111.191406 170.121094 110.300781 169.804688 109.640625 169.144531 C 109.089844 168.570312 108.789062 167.738281 108.789062 166.824219 C 108.789062 165.019531 110.042969 163.71875 112.511719 163.71875 L 115.363281 163.71875 L 115.363281 162.949219 C 115.363281 161.59375 114.683594 160.933594 113 160.933594 C 111.8125 160.933594 111.234375 161.210938 110.640625 161.976562 L 109.214844 160.632812 C 110.234375 159.441406 111.300781 159.078125 113.089844 159.078125 C 116.042969 159.078125 117.535156 160.335938 117.535156 162.78125 L 117.535156 169.996094 L 115.40625 169.996094 "
       id="path115" />
    <path
       style=" stroke:none;fill-rule:nonzero;fill:rgb(13.729858%,12.159729%,12.548828%);fill-opacity:1;"
       d="M 125.132812 170.121094 C 122.707031 170.121094 120.320312 168.632812 120.320312 164.589844 C 120.320312 160.550781 122.707031 159.078125 125.132812 159.078125 C 126.621094 159.078125 127.664062 159.503906 128.6875 160.59375 L 127.195312 162.039062 C 126.511719 161.292969 125.980469 161.015625 125.132812 161.015625 C 124.300781 161.015625 123.597656 161.355469 123.128906 161.976562 C 122.664062 162.566406 122.492188 163.335938 122.492188 164.589844 C 122.492188 165.847656 122.664062 166.636719 123.128906 167.230469 C 123.597656 167.847656 124.300781 168.1875 125.132812 168.1875 C 125.980469 168.1875 126.511719 167.910156 127.195312 167.167969 L 128.6875 168.589844 C 127.664062 169.675781 126.621094 170.121094 125.132812 170.121094 "
       id="path117" />
    <path
       style=" stroke:none;fill-rule:nonzero;fill:rgb(13.729858%,12.159729%,12.548828%);fill-opacity:1;"
       d="M 131.195312 159.210938 L 133.363281 159.210938 L 133.363281 169.996094 L 131.195312 169.996094 Z M 131.132812 154.78125 L 133.433594 154.78125 L 133.433594 157.078125 L 131.132812 157.078125 L 131.132812 154.78125 "
       id="path119" />
    <path
       style=" stroke:none;fill-rule:nonzero;fill:rgb(13.729858%,12.159729%,12.548828%);fill-opacity:1;"
       d="M 142.390625 161.632812 C 141.984375 161.230469 141.429688 161.015625 140.792969 161.015625 C 140.15625 161.015625 139.621094 161.230469 139.21875 161.632812 C 138.558594 162.296875 138.472656 163.421875 138.472656 164.589844 C 138.472656 165.761719 138.558594 166.890625 139.21875 167.546875 C 139.621094 167.953125 140.15625 168.1875 140.792969 168.1875 C 141.429688 168.1875 141.984375 167.953125 142.390625 167.546875 C 143.050781 166.890625 143.132812 165.761719 143.132812 164.589844 C 143.132812 163.421875 143.050781 162.296875 142.390625 161.632812 M 144.027344 168.847656 C 143.324219 169.570312 142.261719 170.121094 140.792969 170.121094 C 139.324219 170.121094 138.28125 169.570312 137.582031 168.847656 C 136.558594 167.78125 136.304688 166.421875 136.304688 164.589844 C 136.304688 162.78125 136.558594 161.421875 137.582031 160.355469 C 138.28125 159.632812 139.324219 159.078125 140.792969 159.078125 C 142.261719 159.078125 143.324219 159.632812 144.027344 160.355469 C 145.050781 161.421875 145.304688 162.78125 145.304688 164.589844 C 145.304688 166.421875 145.050781 167.78125 144.027344 168.847656 "
       id="path121" />
    <path
       style=" stroke:none;fill-rule:nonzero;fill:rgb(13.729858%,12.159729%,12.548828%);fill-opacity:1;"
       d="M 154.8125 169.996094 L 154.8125 163.421875 C 154.8125 161.742188 153.855469 161.015625 152.644531 161.015625 C 151.433594 161.015625 150.410156 161.761719 150.410156 163.421875 L 150.410156 169.996094 L 148.238281 169.996094 L 148.238281 159.210938 L 150.367188 159.210938 L 150.367188 160.292969 C 151.113281 159.484375 152.15625 159.078125 153.238281 159.078125 C 154.347656 159.078125 155.261719 159.441406 155.902344 160.058594 C 156.730469 160.867188 156.984375 161.890625 156.984375 163.101562 L 156.984375 169.996094 L 154.8125 169.996094 "
       id="path123" />
    <path
       style=" stroke:none;fill-rule:nonzero;fill:rgb(13.729858%,12.159729%,12.548828%);fill-opacity:1;"
       d="M 166.09375 165.230469 L 163.5625 165.230469 C 162.285156 165.230469 161.625 165.804688 161.625 166.785156 C 161.625 167.761719 162.242188 168.316406 163.605469 168.316406 C 164.433594 168.316406 165.050781 168.25 165.625 167.699219 C 165.945312 167.378906 166.09375 166.867188 166.09375 166.101562 Z M 166.136719 169.996094 L 166.136719 169.015625 C 165.347656 169.804688 164.605469 170.121094 163.265625 170.121094 C 161.925781 170.121094 161.027344 169.804688 160.371094 169.144531 C 159.816406 168.570312 159.519531 167.738281 159.519531 166.824219 C 159.519531 165.019531 160.773438 163.71875 163.242188 163.71875 L 166.09375 163.71875 L 166.09375 162.949219 C 166.09375 161.59375 165.414062 160.933594 163.730469 160.933594 C 162.542969 160.933594 161.96875 161.210938 161.371094 161.976562 L 159.945312 160.632812 C 160.964844 159.441406 162.03125 159.078125 163.816406 159.078125 C 166.773438 159.078125 168.265625 160.335938 168.265625 162.78125 L 168.265625 169.996094 L 166.136719 169.996094 "
       id="path125" />
    <path
       style=" stroke:none;fill-rule:nonzero;fill:rgb(13.729858%,12.159729%,12.548828%);fill-opacity:1;"
       d="M 174.5 169.996094 C 172.433594 169.996094 171.542969 168.613281 171.542969 167.015625 L 171.542969 154.847656 L 173.714844 154.847656 L 173.714844 166.890625 C 173.714844 167.722656 174.011719 168.144531 174.882812 168.144531 L 175.839844 168.144531 L 175.839844 169.996094 L 174.5 169.996094 "
       id="path127" />
    <path
       style=" stroke:none;fill-rule:nonzero;fill:rgb(13.729858%,12.159729%,12.548828%);fill-opacity:1;"
       d="M 4.390625 184.570312 C 2.449219 184.570312 2.152344 186.230469 2.152344 188.144531 C 2.152344 190.058594 2.449219 191.738281 4.390625 191.738281 C 6.332031 191.738281 6.609375 190.058594 6.609375 188.144531 C 6.609375 186.230469 6.332031 184.570312 4.390625 184.570312 M 6.652344 193.546875 L 6.652344 192.398438 C 5.847656 193.378906 4.984375 193.675781 3.824219 193.675781 C 2.746094 193.675781 1.792969 193.3125 1.203125 192.71875 C 0.125 191.632812 0 189.78125 0 188.144531 C 0 186.503906 0.125 184.675781 1.203125 183.589844 C 1.792969 182.992188 2.722656 182.636719 3.800781 182.636719 C 4.941406 182.636719 5.828125 182.910156 6.609375 183.847656 L 6.609375 178.398438 L 8.761719 178.398438 L 8.761719 193.546875 L 6.652344 193.546875 "
       id="path129" />
    <path
       style=" stroke:none;fill-rule:nonzero;fill:rgb(13.729858%,12.159729%,12.548828%);fill-opacity:1;"
       d="M 17.839844 185.804688 C 17.503906 184.996094 16.742188 184.441406 15.726562 184.441406 C 14.714844 184.441406 13.933594 184.996094 13.597656 185.804688 C 13.382812 186.292969 13.34375 186.613281 13.324219 187.273438 L 18.136719 187.273438 C 18.113281 186.613281 18.050781 186.292969 17.839844 185.804688 M 13.324219 188.78125 C 13.324219 190.632812 14.292969 191.804688 16.042969 191.804688 C 17.25 191.804688 17.882812 191.464844 18.640625 190.699219 L 20.015625 191.996094 C 18.917969 193.101562 17.882812 193.675781 16.003906 193.675781 C 13.324219 193.675781 11.191406 192.253906 11.191406 188.144531 C 11.191406 184.652344 12.984375 182.636719 15.726562 182.636719 C 18.601562 182.636719 20.269531 184.757812 20.269531 187.824219 L 20.269531 188.78125 L 13.324219 188.78125 "
       id="path131" />
    <path
       style=" stroke:none;fill-rule:nonzero;fill:rgb(13.729858%,12.159729%,12.548828%);fill-opacity:1;"
       d="M 26.9375 193.546875 L 26.9375 178.398438 L 36.542969 178.398438 L 36.542969 180.464844 L 29.21875 180.464844 L 29.21875 184.890625 L 35.46875 184.890625 L 35.46875 186.933594 L 29.21875 186.933594 L 29.21875 191.484375 L 36.542969 191.484375 L 36.542969 193.546875 L 26.9375 193.546875 "
       id="path133" />
    <path
       style=" stroke:none;fill-rule:nonzero;fill:rgb(13.729858%,12.159729%,12.548828%);fill-opacity:1;"
       d="M 45.707031 193.546875 L 45.707031 186.972656 C 45.707031 185.292969 44.757812 184.570312 43.550781 184.570312 C 42.351562 184.570312 41.335938 185.316406 41.335938 186.972656 L 41.335938 193.546875 L 39.179688 193.546875 L 39.179688 182.761719 L 41.292969 182.761719 L 41.292969 183.847656 C 42.03125 183.039062 43.066406 182.636719 44.144531 182.636719 C 45.242188 182.636719 46.148438 182.992188 46.78125 183.609375 C 47.605469 184.417969 47.859375 185.445312 47.859375 186.652344 L 47.859375 193.546875 L 45.707031 193.546875 "
       id="path135" />
    <path
       style=" stroke:none;fill-rule:nonzero;fill:rgb(13.729858%,12.159729%,12.548828%);fill-opacity:1;"
       d="M 57.042969 185.804688 C 56.707031 184.996094 55.945312 184.441406 54.933594 184.441406 C 53.917969 184.441406 53.136719 184.996094 52.800781 185.804688 C 52.589844 186.292969 52.546875 186.613281 52.527344 187.273438 L 57.339844 187.273438 C 57.316406 186.613281 57.253906 186.292969 57.042969 185.804688 M 52.527344 188.78125 C 52.527344 190.632812 53.496094 191.804688 55.25 191.804688 C 56.453125 191.804688 57.085938 191.464844 57.84375 190.699219 L 59.21875 191.996094 C 58.121094 193.101562 57.085938 193.675781 55.207031 193.675781 C 52.527344 193.675781 50.394531 192.253906 50.394531 188.144531 C 50.394531 184.652344 52.1875 182.636719 54.933594 182.636719 C 57.800781 182.636719 59.472656 184.757812 59.472656 187.824219 L 59.472656 188.78125 L 52.527344 188.78125 "
       id="path137" />
    <path
       style=" stroke:none;fill-rule:nonzero;fill:rgb(13.729858%,12.159729%,12.548828%);fill-opacity:1;"
       d="M 67.976562 185.292969 C 67.492188 184.804688 67.113281 184.570312 66.375 184.570312 C 65.214844 184.570312 64.242188 185.503906 64.242188 186.992188 L 64.242188 193.546875 L 62.085938 193.546875 L 62.085938 182.761719 L 64.199219 182.761719 L 64.199219 183.929688 C 64.75 183.164062 65.847656 182.636719 67.050781 182.636719 C 68.085938 182.636719 68.867188 182.910156 69.605469 183.652344 L 67.976562 185.292969 "
       id="path139" />
    <g
       clip-path="url(#clip3)"
       clip-rule="nonzero"
       id="g143">
      <path
         style=" stroke:none;fill-rule:nonzero;fill:rgb(13.729858%,12.159729%,12.548828%);fill-opacity:1;"
         d="M 74.285156 184.570312 C 72.34375 184.570312 72.089844 186.25 72.089844 187.949219 C 72.089844 189.652344 72.34375 191.335938 74.285156 191.335938 C 76.226562 191.335938 76.460938 189.652344 76.460938 187.949219 C 76.460938 186.25 76.226562 184.570312 74.285156 184.570312 M 74.03125 198.039062 C 72.40625 198.039062 71.371094 197.65625 70.253906 196.609375 L 71.625 195.230469 C 72.300781 195.863281 72.890625 196.1875 73.949219 196.1875 C 75.765625 196.1875 76.460938 194.890625 76.460938 193.441406 L 76.460938 192.058594 C 75.679688 192.992188 74.792969 193.296875 73.695312 193.296875 C 72.617188 193.296875 71.730469 192.933594 71.140625 192.335938 C 70.105469 191.292969 69.9375 189.78125 69.9375 187.949219 C 69.9375 186.121094 70.105469 184.609375 71.140625 183.570312 C 71.730469 182.972656 72.640625 182.636719 73.71875 182.636719 C 74.855469 182.636719 75.722656 182.929688 76.523438 183.910156 L 76.523438 182.761719 L 78.613281 182.761719 L 78.613281 193.484375 C 78.613281 196.121094 76.882812 198.039062 74.03125 198.039062 "
         id="path141" />
    </g>
    <path
       style=" stroke:none;fill-rule:nonzero;fill:rgb(13.729858%,12.159729%,12.548828%);fill-opacity:1;"
       d="M 81.800781 182.761719 L 83.953125 182.761719 L 83.953125 193.546875 L 81.800781 193.546875 Z M 83.109375 180.804688 L 81.484375 180.804688 L 83.070312 177.355469 L 85.453125 177.355469 L 83.109375 180.804688 "
       id="path145" />
    <path
       style=" stroke:none;fill-rule:nonzero;fill:rgb(13.729858%,12.159729%,12.548828%);fill-opacity:1;"
       d="M 92.863281 188.78125 L 90.351562 188.78125 C 89.085938 188.78125 88.429688 189.355469 88.429688 190.335938 C 88.429688 191.316406 89.042969 191.867188 90.394531 191.867188 C 91.21875 191.867188 91.828125 191.804688 92.398438 191.25 C 92.714844 190.929688 92.863281 190.421875 92.863281 189.652344 Z M 92.90625 193.546875 L 92.90625 192.570312 C 92.125 193.355469 91.386719 193.675781 90.054688 193.675781 C 88.726562 193.675781 87.839844 193.355469 87.183594 192.699219 C 86.632812 192.121094 86.339844 191.292969 86.339844 190.378906 C 86.339844 188.570312 87.585938 187.273438 90.035156 187.273438 L 92.863281 187.273438 L 92.863281 186.503906 C 92.863281 185.144531 92.1875 184.480469 90.519531 184.480469 C 89.339844 184.480469 88.765625 184.757812 88.179688 185.523438 L 86.761719 184.1875 C 87.777344 182.992188 88.832031 182.636719 90.605469 182.636719 C 93.539062 182.636719 95.019531 183.886719 95.019531 186.335938 L 95.019531 193.546875 L 92.90625 193.546875 "
       id="path147" />
    <path
       style=" stroke:none;fill-rule:nonzero;fill:rgb(13.729858%,12.159729%,12.548828%);fill-opacity:1;"
       d="M 107.644531 181.824219 L 105.300781 188.550781 L 109.925781 188.550781 Z M 111.589844 193.546875 L 110.558594 190.507812 L 104.625 190.507812 L 103.589844 193.546875 L 101.160156 193.546875 L 106.671875 178.398438 L 108.511719 178.398438 L 114.019531 193.546875 L 111.589844 193.546875 "
       id="path149" />
    <path
       style=" stroke:none;fill-rule:nonzero;fill:rgb(13.729858%,12.159729%,12.548828%);fill-opacity:1;"
       d="M 118.976562 193.546875 C 116.972656 193.546875 116.042969 192.101562 116.042969 190.550781 L 116.042969 184.609375 L 114.816406 184.609375 L 114.816406 182.953125 L 116.042969 182.953125 L 116.042969 179.675781 L 118.199219 179.675781 L 118.199219 182.953125 L 120.265625 182.953125 L 120.265625 184.609375 L 118.199219 184.609375 L 118.199219 190.441406 C 118.199219 191.226562 118.578125 191.695312 119.378906 191.695312 L 120.265625 191.695312 L 120.265625 193.546875 L 118.976562 193.546875 "
       id="path151" />
    <path
       style=" stroke:none;fill-rule:nonzero;fill:rgb(13.729858%,12.159729%,12.548828%);fill-opacity:1;"
       d="M 127.382812 180.804688 L 125.757812 180.804688 L 127.339844 177.355469 L 129.726562 177.355469 Z M 128.433594 185.1875 C 128.035156 184.785156 127.488281 184.570312 126.855469 184.570312 C 126.222656 184.570312 125.691406 184.785156 125.292969 185.1875 C 124.636719 185.84375 124.554688 186.972656 124.554688 188.144531 C 124.554688 189.316406 124.636719 190.441406 125.292969 191.101562 C 125.691406 191.503906 126.222656 191.738281 126.855469 191.738281 C 127.488281 191.738281 128.035156 191.503906 128.433594 191.101562 C 129.089844 190.441406 129.179688 189.316406 129.179688 188.144531 C 129.179688 186.972656 129.089844 185.84375 128.433594 185.1875 M 130.0625 192.398438 C 129.367188 193.121094 128.3125 193.675781 126.855469 193.675781 C 125.394531 193.675781 124.359375 193.121094 123.667969 192.398438 C 122.652344 191.335938 122.398438 189.976562 122.398438 188.144531 C 122.398438 186.335938 122.652344 184.972656 123.667969 183.910156 C 124.359375 183.1875 125.394531 182.636719 126.855469 182.636719 C 128.3125 182.636719 129.367188 183.1875 130.0625 183.910156 C 131.078125 184.972656 131.332031 186.335938 131.332031 188.144531 C 131.332031 189.976562 131.078125 191.335938 130.0625 192.398438 "
       id="path153" />
    <path
       style=" stroke:none;fill-rule:nonzero;fill:rgb(13.729858%,12.159729%,12.548828%);fill-opacity:1;"
       d="M 147.1875 193.546875 L 147.1875 186.972656 C 147.1875 185.292969 146.234375 184.570312 145.03125 184.570312 C 143.871094 184.570312 142.8125 185.316406 142.8125 186.867188 L 142.8125 193.546875 L 140.660156 193.546875 L 140.660156 186.972656 C 140.660156 185.292969 139.710938 184.570312 138.507812 184.570312 C 137.300781 184.570312 136.289062 185.316406 136.289062 186.972656 L 136.289062 193.546875 L 134.136719 193.546875 L 134.136719 182.761719 L 136.246094 182.761719 L 136.246094 183.847656 C 136.96875 183.058594 138.023438 182.636719 139.097656 182.636719 C 140.429688 182.636719 141.464844 183.164062 142.140625 184.207031 C 143.003906 183.144531 144.082031 182.636719 145.496094 182.636719 C 146.59375 182.636719 147.566406 182.992188 148.199219 183.609375 C 149.023438 184.417969 149.339844 185.445312 149.339844 186.652344 L 149.339844 193.546875 L 147.1875 193.546875 "
       id="path155" />
    <path
       style=" stroke:none;fill-rule:nonzero;fill:rgb(13.729858%,12.159729%,12.548828%);fill-opacity:1;"
       d="M 152.546875 182.761719 L 154.699219 182.761719 L 154.699219 193.546875 L 152.546875 193.546875 Z M 152.480469 178.335938 L 154.761719 178.335938 L 154.761719 180.632812 L 152.480469 180.632812 L 152.480469 178.335938 "
       id="path157" />
    <path
       style=" stroke:none;fill-rule:nonzero;fill:rgb(13.729858%,12.159729%,12.548828%);fill-opacity:1;"
       d="M 162.238281 193.675781 C 159.828125 193.675781 157.464844 192.1875 157.464844 188.144531 C 157.464844 184.101562 159.828125 182.636719 162.238281 182.636719 C 163.71875 182.636719 164.75 183.058594 165.761719 184.144531 L 164.285156 185.589844 C 163.605469 184.847656 163.078125 184.570312 162.238281 184.570312 C 161.414062 184.570312 160.71875 184.90625 160.25 185.523438 C 159.785156 186.121094 159.617188 186.890625 159.617188 188.144531 C 159.617188 189.398438 159.785156 190.183594 160.25 190.78125 C 160.71875 191.398438 161.414062 191.738281 162.238281 191.738281 C 163.078125 191.738281 163.605469 191.464844 164.285156 190.71875 L 165.761719 192.144531 C 164.75 193.230469 163.71875 193.675781 162.238281 193.675781 "
       id="path159" />
    <path
       style=" stroke:none;fill-rule:nonzero;fill:rgb(13.729858%,12.159729%,12.548828%);fill-opacity:1;"
       d="M 173.699219 188.78125 L 171.1875 188.78125 C 169.917969 188.78125 169.265625 189.355469 169.265625 190.335938 C 169.265625 191.316406 169.878906 191.867188 171.230469 191.867188 C 172.050781 191.867188 172.664062 191.804688 173.234375 191.25 C 173.550781 190.929688 173.699219 190.421875 173.699219 189.652344 Z M 173.742188 193.546875 L 173.742188 192.570312 C 172.957031 193.355469 172.222656 193.675781 170.890625 193.675781 C 169.5625 193.675781 168.675781 193.355469 168.019531 192.699219 C 167.46875 192.121094 167.175781 191.292969 167.175781 190.378906 C 167.175781 188.570312 168.421875 187.273438 170.867188 187.273438 L 173.699219 187.273438 L 173.699219 186.503906 C 173.699219 185.144531 173.023438 184.480469 171.355469 184.480469 C 170.175781 184.480469 169.601562 184.757812 169.011719 185.523438 L 167.597656 184.1875 C 168.609375 182.992188 169.667969 182.636719 171.441406 182.636719 C 174.378906 182.636719 175.851562 183.886719 175.851562 186.335938 L 175.851562 193.546875 L 173.742188 193.546875 "
       id="path161" />
    <path
       style="stroke:none;fill-rule:evenodd;fill:#000000;fill-opacity:1"
       d="M 160.875 74.191406 C 160.875 114.480469 128.21875 147.144531 87.925781 147.144531 C 47.636719 147.144531 14.976562 114.480469 14.976562 74.191406 C 14.976562 33.902344 47.636719 1.242188 87.925781 1.242188 C 128.21875 1.242188 160.875 33.902344 160.875 74.191406 "
       id="path163" />
    <path
       style=" stroke:none;fill-rule:nonzero;fill:rgb(100%,100%,100%);fill-opacity:1;"
       d="M 154.242188 74.195312 C 154.242188 110.816406 124.550781 140.507812 87.925781 140.507812 C 51.300781 140.507812 21.609375 110.816406 21.609375 74.195312 C 21.609375 37.566406 51.300781 7.875 87.925781 7.875 C 124.550781 7.875 154.242188 37.566406 154.242188 74.195312 "
       id="path165" />
    <path
       style="stroke:none;fill-rule:nonzero;fill:#000000;fill-opacity:1"
       d="M 147.613281 74.191406 C 147.613281 107.152344 120.890625 133.878906 87.925781 133.878906 C 54.964844 133.878906 28.242188 107.152344 28.242188 74.191406 C 28.242188 41.230469 54.964844 14.507812 87.925781 14.507812 C 120.890625 14.507812 147.613281 41.230469 147.613281 74.191406 "
       id="path167" />
    <path
       style=" stroke:none;fill-rule:nonzero;fill:rgb(100%,100%,100%);fill-opacity:1;"
       d="M 140.980469 74.195312 C 140.980469 103.492188 117.226562 127.246094 87.925781 127.246094 C 58.625 127.246094 34.871094 103.492188 34.871094 74.195312 C 34.871094 44.890625 58.625 21.140625 87.925781 21.140625 C 117.226562 21.140625 140.980469 44.890625 140.980469 74.195312 "
       id="path169" />
    <path
       style=" stroke:none;fill-rule:nonzero;fill:rgb(13.729858%,12.159729%,12.548828%);fill-opacity:1;"
       d="M 48.289062 74.167969 C 48.289062 62.335938 53.519531 51.683594 61.777344 44.402344 L 61.777344 35.84375 C 49.554688 44.222656 41.503906 58.292969 41.503906 74.167969 C 41.503906 90.082031 49.566406 104.171875 61.804688 112.554688 L 61.804688 103.992188 C 53.53125 96.703125 48.289062 86.023438 48.289062 74.167969 "
       id="path171" />
    <path
       style=" stroke:none;fill-rule:nonzero;fill:rgb(13.729858%,12.159729%,12.548828%);fill-opacity:1;"
       d="M 96.601562 112.929688 L 96.601562 77.589844 L 110.140625 77.589844 L 110.140625 70.796875 L 96.601562 70.796875 L 96.601562 35.453125 C 101.519531 36.558594 106.097656 38.582031 110.140625 41.332031 L 110.140625 33.414062 C 104.0625 30.078125 97.15625 28.066406 89.824219 27.769531 L 89.824219 120.613281 C 97.15625 120.316406 104.0625 118.304688 110.140625 114.96875 L 110.140625 107.039062 C 106.097656 109.792969 101.519531 111.820312 96.601562 112.929688 "
       id="path173" />
    <path
       style=" stroke:none;fill-rule:nonzero;fill:rgb(13.729858%,12.159729%,12.548828%);fill-opacity:1;"
       d="M 85.988281 110.867188 L 85.988281 27.777344 C 83.679688 27.871094 81.414062 28.136719 79.203125 28.558594 L 79.203125 74.5625 L 73.511719 37.367188 L 73.503906 37.371094 L 72.441406 30.402344 C 70.453125 31.109375 68.527344 31.949219 66.667969 32.910156 L 66.425781 33.015625 L 66.425781 33.035156 C 66.171875 33.171875 65.914062 33.3125 65.660156 33.449219 L 65.660156 114.9375 C 67.824219 116.125 70.09375 117.144531 72.445312 117.980469 L 72.421875 110.710938 L 72.421875 73.589844 L 78.199219 112.671875 C 78.171875 112.664062 78.144531 112.660156 78.121094 112.652344 L 79.148438 119.816406 C 81.378906 120.246094 83.660156 120.515625 85.988281 120.613281 L 85.988281 110.867188 "
       id="path175" />
    <path
       style=" stroke:none;fill-rule:nonzero;fill:rgb(13.729858%,12.159729%,12.548828%);fill-opacity:1;"
       d="M 120.785156 51.988281 C 124.484375 57.453125 126.859375 63.878906 127.445312 70.796875 L 120.785156 70.796875 Z M 120.785156 95.5625 L 120.785156 77.589844 L 127.441406 77.589844 C 126.933594 83.523438 125.109375 89.09375 122.265625 94.003906 L 127.707031 98.089844 C 131.921875 91.09375 134.347656 82.90625 134.347656 74.167969 C 134.347656 58.257812 126.269531 44.160156 114.003906 35.78125 L 114.003906 44.308594 L 113.992188 44.308594 C 113.992188 44.308594 114.003906 44.316406 114.003906 44.316406 L 114.003906 112.59375 C 116.4375 110.933594 118.710938 109.046875 120.785156 106.960938 L 120.785156 95.5625 "
       id="path177" />
  </g>
</svg>
