<?xml version="1.0" encoding="UTF-8" standalone="no"?>
<!-- Created with Inkscape (http://www.inkscape.org/) -->

<svg
   xmlns:dc="http://purl.org/dc/elements/1.1/"
   xmlns:cc="http://creativecommons.org/ns#"
   xmlns:rdf="http://www.w3.org/1999/02/22-rdf-syntax-ns#"
   xmlns:svg="http://www.w3.org/2000/svg"
   xmlns="http://www.w3.org/2000/svg"
   xmlns:sodipodi="http://sodipodi.sourceforge.net/DTD/sodipodi-0.dtd"
   xmlns:inkscape="http://www.inkscape.org/namespaces/inkscape"
   width="210mm"
   height="297mm"
   viewBox="0 0 210 297"
   version="1.1"
   id="svg8"
   inkscape:version="0.92.2 5c3e80d, 2017-08-06"
   sodipodi:docname="UNSAM-horizontal-INKSCAPE.svg"
   inkscape:export-filename="/home/mariano/Escritos-Presentaciones/NuMat2018/PosterTemplate/unsam.png"
   inkscape:export-xdpi="299"
   inkscape:export-ydpi="299">
  <defs
     id="defs2" />
  <sodipodi:namedview
     id="base"
     pagecolor="#ffffff"
     bordercolor="#666666"
     borderopacity="1.0"
     inkscape:pageopacity="0.0"
     inkscape:pageshadow="2"
     inkscape:zoom="0.98994949"
     inkscape:cx="327.93825"
     inkscape:cy="1108.1917"
     inkscape:document-units="mm"
     inkscape:current-layer="layer1"
     showgrid="false"
     inkscape:window-width="1318"
     inkscape:window-height="739"
     inkscape:window-x="48"
     inkscape:window-y="0"
     inkscape:window-maximized="1" />
  <metadata
     id="metadata5">
    <rdf:RDF>
      <cc:Work
         rdf:about="">
        <dc:format>image/svg+xml</dc:format>
        <dc:type
           rdf:resource="http://purl.org/dc/dcmitype/StillImage" />
        <dc:title />
      </cc:Work>
    </rdf:RDF>
  </metadata>
  <g
     inkscape:label="Capa 1"
     inkscape:groupmode="layer"
     id="layer1">
    <path
       style="opacity:1;fill:#030304;stroke:#030304;stroke-width:0.0044822"
       inkscape:connector-curvature="0"
       id="path4485"
       d="m 23.066246,-31.609233 c 2.247077,0 4.494153,0 6.74123,0 1.410399,0.005 2.825579,0.07172 4.216855,0.305988 0.860582,0.14821 1.721165,0.353792 2.524375,0.702804 0.458978,0.205587 0.908394,0.449418 1.247845,0.822338 0.353796,-0.3777 0.812774,-0.626311 1.281312,-0.831899 0.851021,-0.363353 1.759414,-0.573721 2.672588,-0.721931 2.17058,-0.353798 4.374626,-0.267739 6.559552,-0.2773 1.40562,0 2.811235,0 4.216857,0 0,8.218562 0.0048,16.437124 0,24.6556933 -1.864596,0 -3.733975,0 -5.603351,0 -1.993685,-0.00955 -4.001709,0.00503 -5.966707,0.3729196 -0.779305,0.1529913 -1.563391,0.353792 -2.270982,0.7219312 -0.344232,0.18646 -0.683685,0.4111688 -0.889269,0.7554006 -0.301203,-0.4876617 -0.841458,-0.7506201 -1.348245,-0.9705485 -0.841459,-0.3346704 -1.735508,-0.5115694 -2.629558,-0.6406526 -1.204817,-0.167338 -2.414413,-0.2247092 -3.628791,-0.2342702 -2.376164,-0.00955 -4.747547,-0.00503 -7.123711,-0.00503 V -31.609479 m 4.910102,4.914882 c 0,4.934008 0,9.868012 0,14.802021 1.553829,0 3.107659,-0.03345 4.656708,0.124309 1.300436,0.133864 2.610434,0.349011 3.829592,0.85102 0.487664,0.215143 0.980108,0.47332 1.338685,0.874923 0.267737,-0.301202 0.61197,-0.51635 0.965765,-0.698029 0.812772,-0.406383 1.69726,-0.635873 2.586529,-0.803211 2.065398,-0.38726 4.178607,-0.353792 6.272689,-0.349012 0,-4.934009 0,-9.868013 0,-14.802021 -2.304447,-0.005 -4.637582,-0.0478 -6.908564,0.41595 -0.678904,0.14343 -1.353027,0.325109 -1.97456,0.635878 -0.363357,0.186454 -0.726713,0.42551 -0.946641,0.779302 -0.186458,-0.310768 -0.487663,-0.521131 -0.798429,-0.698029 -0.502006,-0.272519 -1.047042,-0.454193 -1.601639,-0.597623 -0.999233,-0.253398 -2.02237,-0.377701 -3.050288,-0.454199 -1.453428,-0.109961 -2.911638,-0.08128 -4.369847,-0.08128 z" />
    <g
       transform="matrix(0.94161038,0,0,0.94161038,29.97326,-102.32148)"
       id="g4588">
      <path
         d="m 69.131788,75.048613 c 0.89891,-0.30819 1.98616,-0.21402 2.76521,0.351 0.47942,0.35957 0.64208,0.97596 0.65064,1.54955 -0.27395,0 -0.54791,0 -0.82186,0 -0.0685,-0.40237 -0.18834,-0.83898 -0.55646,-1.06157 -0.5051,-0.29107 -1.13862,-0.29963 -1.69509,-0.1541 -0.62495,0.17978 -0.96739,1.07013 -0.48797,1.56667 0.37668,0.29963 0.88178,0.34244 1.33551,0.47942 0.64208,0.17122 1.35264,0.23114 1.88343,0.65919 0.48798,0.40237 0.59071,1.08725 0.49654,1.677957 -0.0685,0.42805 -0.29964,0.84754 -0.66776,1.08725 -0.73625,0.47942 -1.66084,0.59071 -2.51694,0.44517 -0.62495,-0.11129 -1.22423,-0.47085 -1.53242,-1.03588 -0.20547,-0.35956 -0.26539,-0.77905 -0.27395,-1.189977 0.27395,0 0.5479,0 0.82185,0 0.0343,0.410927 0.12842,0.847537 0.45374,1.130047 0.45373,0.41093 1.12149,0.45374 1.70364,0.37669 0.44517,-0.0685 0.95027,-0.26539 1.12149,-0.72769 0.13698,-0.40237 0.0685,-0.967387 -0.35956,-1.172857 -0.78761,-0.3938 -1.70364,-0.41949 -2.51694,-0.73624 -0.37668,-0.12842 -0.71912,-0.37669 -0.87322,-0.74481 -0.40237,-0.94171 0.0942,-2.14882 1.07012,-2.49982 z"
         id="path4487"
         inkscape:connector-curvature="0"
         style="opacity:1;fill:#030304;stroke:#030304;stroke-width:0.00802595" />
      <path
         d="m 27.48246,75.040053 c 0.291075,0 0.59071,0 0.881784,0 0.0086,1.32696 0,2.65392 0,3.97231 0,0.52222 0.102733,1.070127 0.462295,1.463927 0.273953,0.31676 0.710564,0.44518 1.121492,0.44518 0.479418,0 1.0102,-0.1113 1.335519,-0.48798 0.325318,-0.35956 0.410928,-0.86466 0.410928,-1.335517 0,-1.35264 0,-2.70528 0,-4.05792 0.299636,0 0.59071,0 0.881785,0 0,1.26703 0.0086,2.53406 0,3.79253 -0.01712,0.753367 -0.111294,1.583787 -0.642076,2.157377 -0.496539,0.5479 -1.275591,0.71912 -1.986156,0.702 -0.684881,-0.009 -1.404006,-0.20547 -1.857739,-0.74481 -0.487978,-0.5479 -0.582149,-1.3184 -0.607832,-2.020397 -0.0086,-1.29271 0,-2.59399 0,-3.8867 z"
         id="path4489"
         inkscape:connector-curvature="0"
         style="opacity:1;fill:#030304;stroke:#030304;stroke-width:0.00802595" />
      <path
         d="m 35.007591,75.040053 c 0.342441,0 0.684881,0 1.035883,0 1.070126,1.73789 2.131692,3.47577 3.201819,5.213657 0,-1.737887 0,-3.475767 0,-5.213657 0.282512,0 0.565027,0 0.847539,0 0,2.15738 0,4.31475 0,6.472127 -0.325317,0 -0.659198,0 -0.984516,0 -1.087249,-1.72933 -2.174497,-3.475767 -3.261746,-5.205097 -0.0086,1.73789 0,3.475767 -0.0086,5.205097 -0.273953,0 -0.547905,0 -0.830419,0 0,-2.157377 0,-4.314747 10e-7,-6.472127 z"
         id="path4491"
         inkscape:connector-curvature="0"
         style="opacity:1;fill:#030304;stroke:#030304;stroke-width:0.00802595" />
      <path
         d="m 42.789551,75.040053 c 0.299636,0 0.59071,0 0.890346,0 0,2.15738 0,4.31475 0,6.472127 -0.299636,0 -0.59071,0 -0.890346,0 0,-2.157377 0,-4.314747 0,-6.472127 z"
         id="path4493"
         inkscape:connector-curvature="0"
         style="opacity:1;fill:#030304;stroke:#030304;stroke-width:0.00802595" />
      <path
         d="m 45.73454,75.040053 c 0.325319,0 0.650637,0 0.975956,0 0.616393,1.83206 1.224224,3.67268 1.849178,5.504727 0.607832,-1.840607 1.215665,-3.672667 1.832057,-5.504727 0.325319,0 0.65064,0 0.975958,0 -0.779054,2.15738 -1.566668,4.31475 -2.354281,6.472127 -0.308196,0 -0.624954,0 -0.93315,0 -0.779053,-2.157377 -1.566666,-4.314747 -2.345718,-6.472127 z"
         id="path4495"
         inkscape:connector-curvature="0"
         style="opacity:1;fill:#030304;stroke:#030304;stroke-width:0.00802595" />
      <path
         d="m 53.362405,75.040053 c 1.566666,0 3.12477,0 4.682875,0 0,0.26539 0,0.53078 0,0.80474 -1.275591,0 -2.551182,-0.009 -3.826773,0 0,0.65063 0,1.30127 0,1.95191 1.18142,0 2.362839,0 3.544259,0 0,0.25683 0,0.5051 0,0.76193 -1.18142,0 -2.362839,0 -3.544259,0 0,0.72768 0,1.455367 0,2.183057 1.301274,0 2.593987,0 3.8867,0 0,0.25683 0,0.51366 0,0.77049 -1.575227,0 -3.159014,0 -4.742802,0 0,-2.157377 0,-4.314747 0,-6.472127 z"
         id="path4497"
         inkscape:connector-curvature="0"
         style="opacity:1;fill:#030304;stroke:#030304;stroke-width:0.00802595" />
      <path
         d="m 60.485169,75.040053 c 0.975955,0 1.951911,0 2.936427,0 0.573588,0.009 1.215664,0.10273 1.643715,0.53078 0.445177,0.44518 0.505097,1.13862 0.385247,1.72933 -0.10273,0.44517 -0.445174,0.80473 -0.83042,1.02732 0.282513,0.1541 0.59071,0.351 0.67632,0.68488 0.1541,0.633517 0.0428,1.284147 0.16266,1.917667 0.0342,0.23115 0.22259,0.38524 0.31676,0.58215 -0.36813,0.009 -0.744811,0 -1.112935,0.009 -0.196903,-0.702 -0.06849,-1.45537 -0.214025,-2.165937 -0.08561,-0.351 -0.41949,-0.58215 -0.76193,-0.59071 -0.779053,-0.0514 -1.549544,-0.009 -2.328596,-0.0171 0,0.916027 0,1.840617 0,2.765207 -0.291075,0 -0.582149,0 -0.873223,0 0,-2.157377 0,-4.314747 0,-6.472127 m 0.881784,0.75337 c -0.01712,0.73625 -0.0086,1.47249 -0.0086,2.2173 0.710564,-0.009 1.429689,0.009 2.140253,-0.009 0.410929,-0.0171 0.907468,-0.18834 1.035883,-0.62495 0.111293,-0.35956 0.111293,-0.77905 -0.06849,-1.12149 -0.188343,-0.33388 -0.59071,-0.45374 -0.950273,-0.45374 -0.719125,-0.0171 -1.43825,0 -2.148814,-0.009 z"
         id="path4499"
         inkscape:connector-curvature="0"
         style="opacity:1;fill:#030304;stroke:#030304;stroke-width:0.00802595" />
      <path
         d="m 75.252918,75.040053 c 0.29107,0 0.59071,0 0.88178,0 0,2.15738 0,4.31475 0,6.480687 -0.29107,-0.009 -0.59071,-0.009 -0.88178,-0.009 0,-2.157377 0,-4.314747 0,-6.472127 z"
         id="path4501"
         inkscape:connector-curvature="0"
         style="opacity:1;fill:#030304;stroke:#030304;stroke-width:0.00802595" />
      <path
         d="m 78.694448,81.52074 c -0.009,-2.157377 0,-4.323307 0,-6.480687 0.87322,0 1.74644,-0.009 2.61967,0 0.55646,0 1.13005,0.16266 1.57522,0.52222 0.59927,0.47086 0.91603,1.21567 1.01876,1.95191 0.11986,0.98452 -0.009,2.0204 -0.52222,2.876497 -0.41093,0.72769 -1.24991,1.13862 -2.07176,1.1215 -0.87323,0.009 -1.74645,0 -2.61967,0.009 m 0.88178,-5.727317 c 0,1.66084 0,3.31311 0,4.973947 0.66776,-0.0171 1.32696,0.0342 1.99472,-0.0342 0.67632,-0.0942 1.15573,-0.70201 1.32695,-1.326957 0.23971,-0.89891 0.23115,-1.90055 -0.18834,-2.73953 -0.23971,-0.5051 -0.77905,-0.81329 -1.32696,-0.8561 -0.59927,-0.0342 -1.19854,-0.009 -1.80637,-0.0171 z"
         id="path4503"
         inkscape:connector-curvature="0"
         style="opacity:1;fill:#030304;stroke:#030304;stroke-width:0.00802595" />
      <path
         d="m 88.111558,75.048613 c 0.33388,-0.009 0.66776,-0.009 1.00164,-0.009 0.77905,2.15738 1.5581,4.31475 2.33716,6.472127 -0.32532,0.009 -0.64208,0.009 -0.95884,0 -0.22258,-0.64208 -0.45373,-1.28415 -0.67632,-1.92623 -0.83898,0 -1.68652,0 -2.5255,0 -0.23114,0.64208 -0.46229,1.28415 -0.702,1.92623 -0.29964,0 -0.59927,0.009 -0.89035,0 0.79618,-2.157377 1.61804,-4.306187 2.41421,-6.463567 m 0.4623,0.9674 c -0.34245,0.95027 -0.68489,1.90054 -1.01877,2.85081 0.66776,0 1.34408,0 2.01184,0 -0.32532,-0.95027 -0.6592,-1.90054 -0.99307,-2.85081 z"
         id="path4505"
         inkscape:connector-curvature="0"
         style="opacity:1;fill:#030304;stroke:#030304;stroke-width:0.00802595" />
      <path
         d="m 93.368018,75.040053 c 0.86467,0 1.72933,0 2.58543,0 0.5479,0 1.10437,0.13698 1.54098,0.4623 0.63352,0.47085 0.98452,1.22422 1.09581,1.98615 0.11986,0.97596 0,2.0204 -0.5051,2.876497 -0.39381,0.702 -1.17286,1.13006 -1.96903,1.14718 -0.91603,0.0171 -1.83206,0 -2.74809,0 0,-2.157377 0,-4.314747 0,-6.472127 m 0.89035,0.75337 c 0,1.66084 0,3.31311 0,4.973947 0.65064,-0.0171 1.30127,0.0342 1.95191,-0.0342 0.68488,-0.0685 1.18998,-0.67632 1.3612,-1.309837 0.23971,-0.84754 0.22259,-1.78925 -0.11129,-2.61111 -0.21403,-0.53934 -0.71913,-0.92459 -1.29272,-0.98452 -0.63351,-0.0599 -1.27559,-0.0171 -1.9091,-0.0342 z"
         id="path4507"
         inkscape:connector-curvature="0"
         style="opacity:1;fill:#030304;stroke:#030304;stroke-width:0.00802595" />
      <path
         d="m 42.806674,85.53585 c 0.813297,-0.93315 2.251546,-1.08724 3.355918,-0.65919 0.76193,0.33388 1.301274,1.08724 1.404006,1.90054 -0.291075,0 -0.573588,0 -0.864663,0 -0.128415,-0.51366 -0.436611,-1.01876 -0.950272,-1.21566 -0.719125,-0.26539 -1.626593,-0.17122 -2.19162,0.38524 -0.462294,0.43661 -0.633514,1.08725 -0.684881,1.70364 -0.06849,0.77906 0.0086,1.6266 0.453733,2.28579 0.513661,0.77906 1.652276,0.9674 2.457011,0.56503 0.573589,-0.31676 0.84754,-0.95883 0.975956,-1.57522 0.282513,0 0.573588,0 0.856101,0 -0.102732,0.90746 -0.582148,1.79781 -1.404006,2.23442 -1.070127,0.53934 -2.516937,0.41093 -3.373039,-0.47086 -0.650637,-0.65919 -0.864663,-1.61803 -0.890345,-2.51693 -0.03424,-0.94172 0.205464,-1.93479 0.856101,-2.6368 z"
         id="path4509"
         inkscape:connector-curvature="0"
         style="opacity:1;fill:#030304;stroke:#030304;stroke-width:0.00802595" />
      <path
         d="m 55.673879,84.714 c 0.821857,-0.12842 1.720764,-0.0599 2.457011,0.36812 0.642076,0.35956 1.070127,1.01876 1.249908,1.7122 0.179781,0.67632 0.188342,1.38689 0.06849,2.07177 -0.162659,0.86466 -0.633515,1.69508 -1.386884,2.1745 -0.67632,0.42805 -1.5153,0.51366 -2.302913,0.41092 -0.779052,-0.10273 -1.52386,-0.53078 -1.951911,-1.2071 -0.487978,-0.75337 -0.633515,-1.69508 -0.547905,-2.58542 0.05993,-0.80474 0.376685,-1.60948 0.950273,-2.19162 0.385245,-0.40237 0.916028,-0.6592 1.463933,-0.75337 m 0.17122,0.78761 c -0.487977,0.11129 -0.924589,0.40237 -1.215664,0.8133 -0.368123,0.51366 -0.470855,1.15573 -0.487977,1.77213 -0.0086,0.71912 0.179781,1.48105 0.659198,2.02896 0.445172,0.48797 1.147176,0.61639 1.78069,0.59071 0.539344,-0.009 1.09581,-0.23115 1.42969,-0.67632 0.530783,-0.72769 0.684881,-1.6694 0.582149,-2.55119 -0.07705,-0.63351 -0.368124,-1.25847 -0.881785,-1.64371 -0.530783,-0.39381 -1.241347,-0.47086 -1.866301,-0.33388 z"
         id="path4511"
         inkscape:connector-curvature="0"
         style="opacity:1;fill:#030304;stroke:#030304;stroke-width:0.00802595" />
      <path
         d="m 27.413972,84.83385 c 0.351001,-0.009 0.702003,-0.009 1.053004,0.009 1.053005,1.73789 2.123131,3.47577 3.193258,5.2051 0.0086,-1.73789 0,-3.47577 0.0086,-5.21366 0.273953,0 0.556466,0 0.830418,0 0.0086,2.15738 0,4.31475 0,6.47213 -0.325318,0 -0.650637,0 -0.984516,0 -1.087249,-1.73789 -2.174497,-3.47577 -3.261746,-5.21366 0.0086,1.73789 -0.0086,3.46721 0.0086,5.2051 -0.282514,0.009 -0.565027,0.009 -0.838979,0.009 -0.0086,-2.15738 0,-4.31475 -0.0086,-6.47213 z"
         id="path4513"
         inkscape:connector-curvature="0"
         style="opacity:1;fill:#030304;stroke:#030304;stroke-width:0.00802595" />
      <path
         d="m 36.959501,84.83385 c 0.33388,-0.009 0.667759,-0.009 1.00164,0.009 0.770491,2.15738 1.549543,4.30619 2.328595,6.46357 -0.316757,0 -0.642076,0 -0.958833,0 -0.222587,-0.64208 -0.445174,-1.29272 -0.67632,-1.93479 -0.838979,0 -1.677959,0 -2.525499,0 -0.231148,0.64207 -0.453734,1.30127 -0.710564,1.94335 -0.291075,-0.009 -0.59071,-0.009 -0.890346,-0.009 0.813297,-2.15738 1.618032,-4.31475 2.431328,-6.47213 m -0.565027,3.80965 c 0.667759,0 1.344079,0 2.020399,0 -0.333879,-0.94171 -0.667759,-1.89198 -0.993077,-2.84225 -0.351002,0.95027 -0.684881,1.90054 -1.027322,2.84225 z"
         id="path4515"
         inkscape:connector-curvature="0"
         style="opacity:1;fill:#030304;stroke:#030304;stroke-width:0.00802595" />
      <path
         d="m 50.100657,84.83385 c 0.291074,0 0.59071,0 0.881787,0 0,2.15738 0,4.31475 0,6.47213 -0.291077,0 -0.590713,0 -0.881787,0 0,-2.15738 0,-4.31475 0,-6.47213 z"
         id="path4517"
         inkscape:connector-curvature="0"
         style="opacity:1;fill:#030304;stroke:#030304;stroke-width:0.00802595" />
      <path
         d="m 61.735077,84.83385 c 0.34244,0 0.67632,0 1.01876,0 1.078688,1.72933 2.148814,3.47577 3.227501,5.21366 0,-1.73789 0,-3.47577 0,-5.21366 0.27395,0 0.55647,0 0.83042,0 0,2.15738 0,4.31475 0,6.47213 -0.32532,0 -0.6592,0 -0.98452,0 -1.087246,-1.72933 -2.165933,-3.46721 -3.253182,-5.21366 -0.0086,1.73789 0,3.47577 0,5.21366 -0.282514,0 -0.565027,0 -0.838979,0 0,-2.15738 0,-4.31475 0,-6.47213 z"
         id="path4519"
         inkscape:connector-curvature="0"
         style="opacity:1;fill:#030304;stroke:#030304;stroke-width:0.00802595" />
      <path
         d="m 68.849278,91.30598 c 0.8133,-2.15738 1.60947,-4.32331 2.43133,-6.48069 0.32532,0.009 0.65064,0.009 0.98451,0.009 0.77906,2.15738 1.55811,4.31475 2.33716,6.47213 -0.31676,0 -0.64207,0 -0.95883,0 -0.22259,-0.64208 -0.45374,-1.28416 -0.66776,-1.93479 -0.84754,-0.009 -1.68652,0 -2.53406,0 -0.23115,0.64207 -0.4623,1.29271 -0.702,1.93479 -0.29964,0 -0.59071,0 -0.89035,0 m 1.85774,-2.66248 c 0.66776,0 1.34408,0 2.01184,0 -0.32532,-0.93315 -0.65064,-1.87486 -0.98452,-2.80801 -0.37668,0.92459 -0.68488,1.87486 -1.02732,2.80801 z"
         id="path4521"
         inkscape:connector-curvature="0"
         style="opacity:1;fill:#030304;stroke:#030304;stroke-width:0.00802595" />
      <path
         d="m 76.554188,84.83385 c 0.29108,0 0.58215,0 0.88179,0 0,1.90055 0,3.79253 0,5.69307 1.07868,0 2.15737,0 3.23606,0 0,0.2654 0,0.52223 0,0.77906 -1.37832,0 -2.74809,0 -4.11785,0 0,-2.15738 0,-4.31475 0,-6.47213 z"
         id="path4523"
         inkscape:connector-curvature="0"
         style="opacity:1;fill:#030304;stroke:#030304;stroke-width:0.00802595" />
      <path
         d="m 86.099718,84.83385 c 0.8561,-0.009 1.71221,0 2.57687,0 0.53934,0 1.08725,0.11985 1.53242,0.44517 0.65064,0.47086 1.0102,1.24991 1.11293,2.03752 0.11985,0.95884 -0.009,1.98616 -0.5051,2.82514 -0.39381,0.71056 -1.17286,1.15574 -1.96903,1.1643 -0.91603,0.009 -1.83206,-0.009 -2.73953,0 -0.0171,-2.15738 -0.009,-4.31475 -0.009,-6.47213 m 0.89035,0.76193 c 0,1.65228 0,3.30455 0,4.95683 0.65063,-0.0171 1.30127,0.0342 1.95191,-0.0343 0.69344,-0.077 1.18998,-0.68488 1.3612,-1.31839 0.23971,-0.8561 0.22259,-1.79782 -0.11985,-2.61967 -0.22259,-0.53935 -0.75337,-0.91603 -1.32696,-0.9674 -0.62496,-0.0514 -1.24991,-0.009 -1.8663,-0.0171 z"
         id="path4525"
         inkscape:connector-curvature="0"
         style="opacity:1;fill:#030304;stroke:#030304;stroke-width:0.00802595" />
      <path
         d="m 93.804628,84.83385 c 1.55811,0 3.12477,-0.009 4.68288,0 0,0.26539 0,0.53078 0,0.79617 -1.27559,0 -2.55118,0 -3.82677,0 -0.009,0.65064 0,1.30984 0,1.96048 1.18142,0 2.35427,0 3.53569,0 0,0.24827 0,0.49654 0,0.74481 -1.18142,0 -2.35427,0 -3.53569,0 0,0.73624 -0.009,1.46393 0.009,2.20018 1.29271,-0.009 2.58542,0 3.87814,-0.009 0,0.2654 0,0.52223 0,0.77906 -1.57523,0 -3.15902,0 -4.74281,0 0,-2.15738 0,-4.31475 0,-6.47213 z"
         id="path4527"
         inkscape:connector-curvature="0"
         style="opacity:1;fill:#030304;stroke:#030304;stroke-width:0.00802595" />
      <path
         d="m 89.789518,92.78703 c 0.46229,0.009 0.92459,0 1.38688,0.009 -0.43661,0.44518 -0.89034,0.86467 -1.31839,1.3184 -0.3082,0 -0.6164,0 -0.92459,0 0.28251,-0.44517 0.55646,-0.89035 0.8561,-1.32696 z"
         id="path4529"
         inkscape:connector-curvature="0"
         style="opacity:1;fill:#030304;stroke:#030304;stroke-width:0.00802595" />
      <path
         d="m 27.525266,95.50943 c 0.393806,-0.60783 1.130053,-0.88178 1.832056,-0.92459 0.838979,-0.077 1.746446,0.10274 2.36284,0.71913 0.368123,0.35956 0.522222,0.88178 0.556466,1.38688 -0.436612,0 -0.864662,0 -1.301275,0 -0.05137,-0.351 -0.222586,-0.702 -0.565027,-0.84754 -0.513661,-0.1969 -1.147176,-0.22258 -1.626592,0.0685 -0.385246,0.22259 -0.445173,0.87323 -0.03424,1.08725 0.93315,0.43661 2.028961,0.40237 2.944988,0.89891 0.916029,0.48797 1.00164,1.83205 0.402369,2.60255 -0.453734,0.61639 -1.241347,0.88178 -1.977595,0.90746 -0.873224,0.0514 -1.832056,-0.0942 -2.474132,-0.74481 -0.385246,-0.35956 -0.539344,-0.8989 -0.547905,-1.41256 0.428051,-0.009 0.856101,0 1.292713,-0.009 0.05993,0.37668 0.222586,0.77905 0.599271,0.92459 0.556466,0.21402 1.224225,0.20546 1.77213,-0.0428 0.462294,-0.1969 0.573587,-0.96739 0.07705,-1.18998 -0.941712,-0.43661 -2.046082,-0.37668 -2.944989,-0.91603 -0.813296,-0.52222 -0.873223,-1.75501 -0.368123,-2.50838 z"
         id="path4531"
         inkscape:connector-curvature="0"
         style="opacity:1;fill:#030304;stroke:#030304;stroke-width:0.00802595" />
      <path
         d="m 34.733638,101.24531 c 0.770491,-2.16593 1.540982,-4.32331 2.311474,-6.48924 0.51366,0 1.01876,0 1.532421,0 0.76193,2.16593 1.52386,4.33187 2.294351,6.48924 -0.496538,0 -0.984516,0.009 -1.481055,0 -0.136976,-0.43661 -0.282513,-0.88178 -0.419489,-1.32695 -0.796174,0 -1.592349,0 -2.379961,0 -0.145538,0.44517 -0.291075,0.89034 -0.436613,1.32695 -0.470856,0.009 -0.941711,0 -1.421128,0 m 3.064843,-4.99107 c -0.282514,0.84754 -0.556466,1.69508 -0.830419,2.54262 0.547905,0 1.09581,0 1.643715,0 -0.273952,-0.84754 -0.539344,-1.69508 -0.813296,-2.54262 z"
         id="path4533"
         inkscape:connector-curvature="0"
         style="opacity:1;fill:#030304;stroke:#030304;stroke-width:0.00802595" />
      <path
         d="m 43.44875,94.75607 c 0.470856,0 0.941712,0 1.412568,-0.009 0.856101,1.49818 1.695079,3.01348 2.559743,4.5031 0.0086,-1.49818 0,-2.99636 0.0086,-4.49453 0.419489,0 0.838978,0 1.267029,0 0,2.16593 0,4.33187 0,6.4978 -0.453733,-0.009 -0.907468,-0.009 -1.361201,0 -0.881784,-1.53242 -1.746446,-3.06484 -2.628232,-4.5887 -0.0086,1.52386 0.0086,3.05628 -0.0086,4.5887 -0.410928,-0.009 -0.830418,-0.009 -1.249908,0 -0.0086,-2.16593 0,-4.33187 10e-7,-6.4978 z"
         id="path4535"
         inkscape:connector-curvature="0"
         style="opacity:1;fill:#030304;stroke:#030304;stroke-width:0.00802595" />
      <path
         d="m 55.990637,94.75607 c 0.659198,0 1.318396,0 1.977594,0 0.393806,1.68651 0.770491,3.39016 1.172858,5.07668 0.393807,-1.68652 0.779053,-3.3816 1.155737,-5.06812 0.659198,-0.0257 1.309835,-0.009 1.960472,-0.009 0.0086,2.15737 0,4.32331 0.0086,6.48924 -0.42805,0.009 -0.856101,0.009 -1.275591,-0.009 0.01712,-1.78925 0,-3.5785 0.0086,-5.36775 -0.419489,1.78925 -0.813296,3.58706 -1.215664,5.37631 -0.445172,0.009 -0.881784,0 -1.318396,0 -0.402367,-1.78069 -0.796174,-3.56994 -1.198541,-5.35063 -0.01712,1.78925 0,3.56994 -0.0086,5.35063 -0.41949,0.009 -0.847541,0 -1.26703,0 0,-2.15737 0,-4.32331 0,-6.48924 z"
         id="path4537"
         inkscape:connector-curvature="0"
         style="opacity:1;fill:#030304;stroke:#030304;stroke-width:0.00802595" />
      <path
         d="m 67.128518,94.76463 c 0.51366,-0.0171 1.02732,-0.009 1.54098,-0.0171 0.76193,2.16594 1.52386,4.33188 2.28579,6.50637 -0.48798,-0.009 -0.97596,-0.009 -1.46393,-0.009 -0.14554,-0.43661 -0.28252,-0.88178 -0.42805,-1.32695 -0.79618,0 -1.58379,0 -2.37997,0 -0.14553,0.44517 -0.29107,0.89034 -0.44517,1.33551 -0.47085,-0.009 -0.94171,0 -1.421127,-0.009 0.770487,-2.15737 1.549547,-4.31475 2.311477,-6.48068 m -0.077,4.03223 c 0.5479,0 1.09581,0 1.65227,0 -0.27395,-0.84754 -0.53934,-1.69508 -0.82185,-2.53406 -0.28252,0.83898 -0.55647,1.68652 -0.83042,2.53406 z"
         id="path4539"
         inkscape:connector-curvature="0"
         style="opacity:1;fill:#030304;stroke:#030304;stroke-width:0.00802595" />
      <path
         d="m 73.583518,94.75607 c 1.12149,0.009 2.24299,-0.0257 3.36448,0.009 0.57359,0.0171 1.15574,0.25683 1.47249,0.76193 0.6164,0.81329 0.38525,2.25154 -0.64207,2.62823 0.29107,0.13697 0.58215,0.33388 0.68488,0.6592 0.1969,0.59927 0.0599,1.2499 0.14554,1.8663 0.0171,0.17122 0.13697,0.29107 0.2397,0.41949 0.009,0.0342 0.0257,0.11129 0.0343,0.14553 -0.5051,0.009 -1.0102,0 -1.5153,0.009 -0.23971,-0.66775 -0.077,-1.38688 -0.22259,-2.0632 -0.0599,-0.29107 -0.34244,-0.44517 -0.61639,-0.46229 -0.53934,-0.0428 -1.07869,-0.009 -1.61803,-0.0171 0,0.84754 0,1.69508 0,2.53406 -0.43661,0 -0.88179,0 -1.32696,0 0,-2.15737 0,-4.32331 0,-6.48924 m 1.32696,1.13005 c 0,0.58215 0.009,1.1643 0,1.74645 0.47941,0 0.95883,0 1.43825,0 0.34244,0 0.77905,-0.0343 0.95883,-0.38525 0.20547,-0.45373 0.0942,-1.19854 -0.47941,-1.30984 -0.63352,-0.0942 -1.2756,-0.0257 -1.91767,-0.0514 z"
         id="path4541"
         inkscape:connector-curvature="0"
         style="opacity:1;fill:#030304;stroke:#030304;stroke-width:0.00802595" />
      <path
         d="m 81.288428,94.75607 c 1.74645,0 3.4929,0 5.23934,0 0,0.38524 0,0.77049 0,1.15573 -0.64207,0 -1.28415,0 -1.93479,0 0,1.78069 0,3.56138 0,5.34207 -0.45373,-0.009 -0.90746,0 -1.3612,-0.009 0,-1.77213 0,-3.55282 0,-5.33351 -0.65063,0 -1.30127,0 -1.94335,0 0,-0.38524 0,-0.77049 0,-1.15573 z"
         id="path4543"
         inkscape:connector-curvature="0"
         style="opacity:1;fill:#030304;stroke:#030304;stroke-width:0.00802595" />
      <path
         d="m 88.984778,94.75607 c 0.44518,0 0.89891,0 1.35264,0 0,2.16593 0,4.33187 0,6.4978 -0.45373,-0.009 -0.90746,-0.009 -1.35264,0 0,-2.16593 0,-4.33187 0,-6.4978 z"
         id="path4545"
         inkscape:connector-curvature="0"
         style="opacity:1;fill:#030304;stroke:#030304;stroke-width:0.00802595" />
      <path
         d="m 93.350898,94.75607 c 0.47942,0 0.95027,0 1.42113,0 0.8561,1.48961 1.68652,2.99635 2.55974,4.48597 0.009,-1.49818 0,-2.99636 0,-4.48597 0.42805,0 0.84754,0 1.26703,0 0.009,2.16593 0.009,4.33187 0,6.4978 -0.44517,-0.009 -0.8989,-0.009 -1.35264,0 -0.88178,-1.53242 -1.75501,-3.0734 -2.63679,-4.60582 0.009,1.53242 0,3.06484 0.009,4.59726 -0.41949,0.009 -0.83898,0 -1.26703,0.009 0,-2.16593 0,-4.33187 0,-6.4978 z"
         id="path4547"
         inkscape:connector-curvature="0"
         style="opacity:1;fill:#030304;stroke:#030304;stroke-width:0.00802595" />
    </g>
  </g>
</svg>
